<svg id="레이어_1" data-name="레이어 1" xmlns="http://www.w3.org/2000/svg" viewBox="0 0 1920 2000"><defs><style>.cls-1{fill:none;stroke:#040000;stroke-miterlimit:10;}</style></defs><path class="cls-1" d="M258,0c.11,1.94-4.08,10.11,4.85,7.62,6.4-1.78,12.64,18.51-5.74,12.51-7.5-2.45-11.4,3.05-13.15,6.64-2.09,4.28,2.65,13.72,9.7,16,9,2.85,14.4-8.2,29.62-9.95,6.46-.75,11.71.95,22.21,4.34,11.8,3.81,32.31,10.44,36.29,25.67a20.29,20.29,0,0,1,.65,4.56c1.65,52.53-32.83,108.55-32.83,108.55s-70.26,114.16-51.89,224c2.73,16.32,9.74,20.87,12.06,22.14,10.86,5.94,25.93-1.52,33.7-7.64,10.42-8.21,20.53-24.12,15.32-32.1-4.12-6.32-17.05-6.46-26-3.06-26.31,10-37.28,58-23,70.32,0,0,10.81,8.77,39.18,4.68l.65-.1s2-.31,4.1-.72c33.81-6.74,54.12-31.38,54.12-31.38,14.27-17.31,17.83-36,21.45-55a148.84,148.84,0,0,0,2.13-15.55c.62-8.5,0-11.81.35-19.36.27-5.14.81-8.06,2.88-19.6,6.32-35.18,6.6-37.45,6.53-41.78-.25-15.87-.91-20.64-.91-20.64-.31-2.2-.4-4.5-.6-9.1s-.24-9.49,2.6-12.3l.31-.29a10.51,10.51,0,0,1,7.1-3,7.94,7.94,0,0,1,1.07.1,9.6,9.6,0,0,1,4,1.68c1.35.92,4.24,1.48,9.95,2.55,4,.74,10.46,1.84,10.47,1.78a83.41,83.41,0,0,0-20.42-.85,11,11,0,0,0-6.3,2.21c-2.7,2.21-3.41,5.51-3.75,7.47-1.8,10.3-.15,21.65.51,27,.79,6.36.78,12.8,1.36,19.19,1.66,18.34,3.29,62.69,1.28,110.57-.55,13.08-1.77,33.48-4.21,74.28,0,0-1.41,23.58-1,32.18,0,.39.12,2.27,0,4.81-.1,2.39-.35,4.15-.41,4.64a105.56,105.56,0,0,0-.25,16c1.25,11.52,32.52,28.24,44.94,19.11,8.61-6.33.4-19.37-4.09-70.82-2.08-23.82-2.58-48.49-3.57-97.83-.14-7.08-.22-13.76-.22-13.76-.13-12.07-.09-21-.07-24.6.09-23.53.13-35.29-.22-41.89-1.89-35.55-9.66-51.11.73-73.58.22-.48.48-1,.8-1.66,29.72-58.52,231.21-5.09,247.69,2.88a20.64,20.64,0,0,1,3.74,2.38c4.75,3.95,5.8,9.13,8.18,27.86,0,0,2.9,22.81,2.72,32.44,0,.21,0,1.22,0,2.59a48.87,48.87,0,0,0,.4,5c1.14,8.81,5.2,82.43,5.2,82.43,3.71,67.23,3.61,67.37,3.84,69.45a159,159,0,0,1,1.05,18.46v.24c0,15.62,2.31,38.29,2.39,41.44,0,.37,0,.74,0,.74a15.21,15.21,0,0,1-.42,3c-.42,1.61-2.64,4.55-4.34,5.86-6.94,5.35-33,4.88-57.2,8.15l-2.62.37c-53.4,7.54-108.86,15.23-147.22,17.59-4.87.3-8.85.48-9.62.51-21.58.95-32.37,1.42-42.77.13C424.27,542.12,410,531,399,528.1c-.34-.09-2.18-.56-2.17-1.14,0-.87,4.1-1.05,8.43-2.42a32.77,32.77,0,0,0,9.32-4.84c7.25-5,10.82-12.19,12.38-15.42,7.07-14.62,6.56-31.93,6.39-38-.67-23.71-1.47-63.86-1.15-84.71.25-16.54,1.2-20.26,0-28.85a73.12,73.12,0,0,1-.47-18.29c.2-2,.24-1.52,1-6.54,0,0,2.93-19.94,1.65-30.89-.13-1.12-.33-2.21-.33-2.21-.17-1-.34-1.66-.4-1.94-.32-1.36-.49-2.51-.82-4.72-1.11-7.42-1.84-29.46.51-42.93a9.42,9.42,0,0,1,1.53-3.95c1.33-1.89,3.7-3.57,9.7-4.71a42.89,42.89,0,0,1,11.24-.77c11.35,1.17,29.84.37,56.05-.76,1.9-.08,7.74.46,19.4,1.53,4,.36,9.29.9,9.84,3.18.16.65-.49,1.84-1.79,4.2a32,32,0,0,1-2.94,4.72c-1.95,2.49-3,3.88-5.11,4.71a8,8,0,0,1-6.38,0l-.21-.12c-.29-.17-2.58-1.59-2.85-3.83-.24-2,1.29-3.57,1.91-4.2A8.28,8.28,0,0,1,529,243c1.24-.16,3.34-.42,4.08.64a4.75,4.75,0,0,1,.66,2.42v.13c0,1.61-2.1,3-2.55,3.31-1.1.72-3,2-4.09,1.27-.81-.53-.76-1.89-.64-3.69.32-4.61.48-6.91,1-8.66.87-2.93,1.25-11.21,2-27.77.32-7,.44-12.63.47-13.89.16-7.36.08-10.47.31-17.64.11-3.3.23-7.05.49-10.76.79-11.27,1.36-19.51,5.24-28.92,4-9.78,8.79-13.91,12.13-16l.15-.09c3.18-2,11.69-6.76,21.85-4.49l.94.23c5.48,1.45,9.32,4.36,15.15,9.7,5.53,5.06,4.19,4.38,8.36,8s6.6,5.29,10,8.8a74.22,74.22,0,0,1,5.38,6.34c.36.48.7.94,1.06,1.49a28.79,28.79,0,0,1,2.14,3.83c.58,1.27,3.66,6.54,9.8,17.1l.23.4c1.3,2.22,10.49,18.12,14.45,29.28a60.48,60.48,0,0,1,2.24,8.52c.23,1.35.34,2.42.34,2.42.11,1,.09,1.43.18,2.39,0,.39.12,1.19.41,2.77a88.25,88.25,0,0,0,2.57,10.14c.13.43.14.45.22.7,1.73,5.58,3.69,11.9,1.83,18.28-.47,1.59-1.55,3.32-3.71,6.76,0,0-1.26,2-2.68,2.29l-.32,0a4.43,4.43,0,0,1-2.11-.32,15.76,15.76,0,0,1-1.89-1,13.11,13.11,0,0,0-2.32-1.23,4,4,0,0,1-1.76-.93,7.62,7.62,0,0,1-2.56-7.13,6.45,6.45,0,0,1,4.73-4.72c3.69-.73,6.67,2.8,7.66,5.35.31.81,1.16,3,0,4.59s-3.73,1.44-4.09,1.4a5.69,5.69,0,0,1-3.7-2c-2.35-3-.46-9.57,3.06-13.63,6.63-7.65,19-6.27,20.78-6.06l.42.06c15.9,2.25,24.16,17.7,25.53,20.26a50.64,50.64,0,0,1,2.43,5.35,53.21,53.21,0,0,1,3.19,12.74c1.42,11,1.64,26.62,1.66,28.27,0,0,.36,28.94.77,40.13.12,3.27.28,6.49.28,6.49.16,3.21.31,5.54.37,6.63.26,4.1.27,5.11.7,14,1.11,22.62,1.3,21.3,1.2,22.09a12.77,12.77,0,0,0,.38,5.73,13.32,13.32,0,0,0,4,5.86,15.68,15.68,0,0,0,6.64,3.45l.51.12c6.47,1.43,45.83,88,45.83,88h0c14.76,59.76,27.2,102.85,28.63,104.85,1.3,1.82,2.66,3.52,2.66,3.52s.69.85,1.4,1.69c2.53,3,44.42,31.75,85.8,34.64,5.07.35,10.32.42,10.32.42a201.77,201.77,0,0,0,24.21-1.27,250.21,250.21,0,0,0,31.24-4.86c25.87-5.89,30-12.21,50.67-14.67a140,140,0,0,1,22.49-.43c43.57,2.68,73.45,47.8,126.63,65.65,45.6,15.31,73.18-1.25,130.74,20.38,7.93,3,18.28,7.38,28.71,16.41,22.47,19.46,29.72,46.91,33.7,62a212.14,212.14,0,0,1,5.37,31.4c.08,1,.51,6,.7,12.78.44,15.6-1,19.33.06,31.65a112.16,112.16,0,0,0,1.86,14.27c1.3,6.45,2.51,9.26,3.45,15.9a84.45,84.45,0,0,1,.82,10.43c.17,7.08-.58,12.57-6.13,40.59-.79,4-1.57,7.89-2.42,13.39-1.08,7-1.6,12.25-1.8,14.17-.65,6.29-1.39,11-5,32.95-10.89,66.69-11.28,67.11-10.72,69.7,0,0,2.29,10.52-1.53,14.56-.24.26-1.36,1.38-2.56,2.55-.91.88-1.88,1.81-4.21,4-2.52,2.34-3.16,2.9-3.45,3.18-3.14,3-5,10.51-3.06,16.85,2,6.52,8.28,12.73,9.45,16.34a24,24,0,0,1,.86,3.9s.11.86.14,1.72c.13,3.48-1.75,8.08-2,11.23-.36,4.58,2.56,8.3,3.07,8.94,2.85,3.63,6.9,4.64,14.3,6.38a79.33,79.33,0,0,0,11.49,1.79c17.72,1.53,26-2.45,27.57-3.32a27.34,27.34,0,0,0,2.79-1.8c1.7-1.3,2.19-2.08,3.76-3.35a22.93,22.93,0,0,1,3.41-2.25c6.54-3.75,14.27-4.66,18.38-5.11l.9-.09a181.18,181.18,0,0,1,25-.59c2,0,4,.12,4.15.13,3.79.13,6.56.28,6.85.3,13.34.7,32.88-1.28,32.88-1.28,20.89-2.12,56.85-.6,77.61,4.25,10.42,2.43,21.39,1.74,31.83,4.09a10,10,0,0,0,4.6,0,9,9,0,0,0,4.77-2.9c1.93-2.37,2.12-5.54,2.21-7,.11-1.75-.07-3.72.58-3.91.3-.09.52.26.73.25,1.7-.16.9-17.1.9-17.1-1.08-22.95,0-30.25-2-43.75a85.92,85.92,0,0,0-2.5-12.55c-1-3.37-1.64-4.79-2.66-8.77-.2-.82-1.08-4.32-1.84-9.48a122.59,122.59,0,0,1-1.27-16.1c-.21-14.57,2-15.22,1.1-26.29a99,99,0,0,0-2.21-13.95c-.89-3.77-1.5-5.32-3.58-12.56,0,0-1.79-6.22-3.42-12.44-2.61-10-4-15.13-4.94-22.29-1.77-13-.78-21.25-.51-23.32.36-2.72.87-5.36,1-6a100.64,100.64,0,0,1,4-14.44c2.31-6.65,2.28-14.37,2.21-29.79,0-9.39-.65-17-1.87-32.17-.93-11.62-1.4-17.43-2-20.6a46.22,46.22,0,0,1-.7-6c-.1-1.81-.06-3.16,0-3.65.31-13.34-2.07-19.34-1.87-30.64a6.89,6.89,0,0,0-1-4.26c-1.8-2.61-5.74-3.26-7.66-3.57a22.13,22.13,0,0,0-2.87-.26,34.48,34.48,0,0,0-7,.43c-3.45.49-6.57-.61-11.58-2.38-7.59-2.68-16.5-7.84-21.27-9.37a10.69,10.69,0,0,0-3.41-.51,8.66,8.66,0,0,0-3.74.85,8.41,8.41,0,0,0-.95.56,11,11,0,0,0-3,3c-1.49,2.21-3.56,3.78-6.12,6.81-10.32,12.21-30,49.67-47.32,52.25-24.32,3.63-40.48-62.05-68.6-58.72-15.59,1.84-45,26.11-45.27,26.38a2,2,0,0,1-.24.2,2.06,2.06,0,0,1-.68.31c-.27.06-1,.15-1.21-.19s.22-1,.32-1.15c.42-.6,1-.82,2.29-1.47.47-.23.93-.49,1.41-.7,2.79-1.25,34.06-24.54,48.32-26.62,25.16-3.67,39.73,52.5,62.68,49.54,21.61-2.79,39-56.5,53.49-55.28l.85.1c9,1.33,14.63,11.17,17.79,17.39,21.65,42.59,38.44,75.61,24,101.11-1.91,3.37-6.56,11.32-15.83,14.8-7.44,2.79-17.79,2.69-25.19-3.06a24.42,24.42,0,0,1-6.13-7.32c-2.51-4.27-5.77-12.36-3.07-14.81,2.44-2.21,9.93,0,12.26-.51a3.77,3.77,0,0,1,1.5-.06,2.81,2.81,0,0,1,1.39.57c.49.44.56,1.49.68,3.58,0,.6,0,1.15.16,2,.06.5.1.68.16,1.12.13,1,.16,1.76.19,2.47.07,1.91-.07,2.55.39,3.55a3,3,0,0,0,.3.54,4.43,4.43,0,0,0,2.21,1.7,4,4,0,0,0,2.55.17c1.33-.44,1.92-1.72,2.55-3.06a14.71,14.71,0,0,0,1.2-6,20,20,0,0,0-.07-2.75c-.17-1.8-.45-2.26-.52-3.93,0-.38,0-1.09.08-2.51.15-3.33.22-3.1.17-3.58a8.62,8.62,0,0,0-2-4.59,5.37,5.37,0,0,0-2.38-1.87,5.84,5.84,0,0,0-2.72-.17c-1,.1-1.43.15-1.71.51-.5.63.2,1.35-.17,2.55a3.23,3.23,0,0,1-1.36,1.7,4.48,4.48,0,0,1-2.89.34c-.43,0-2.29,0-6,0l-3.65,0-1.8,0c-3-.4-10.35-22-.34-31.32,3.17-2.94,12.73-1.74,31.83.68a3.82,3.82,0,0,1,2.56,1.2,4.15,4.15,0,0,1,.68,2.55,27.75,27.75,0,0,1-.51,3.06,6.34,6.34,0,0,1-.35,1.34,5.11,5.11,0,0,1-.65,1.22c-.59.73-1.56.87-2.73,1-3,.32-4.76.34-4.76.34-2.47,0-3.7,0-4.26,0a11.68,11.68,0,0,0-4.19.31l-.57.2a10.83,10.83,0,0,0-2.39,1.36c-2.06,1.43-2.18,1.73-2.21,2a2.52,2.52,0,0,0,.23,1.08,3.29,3.29,0,0,0,.62.92,5.44,5.44,0,0,0,1.53,1.36,5.49,5.49,0,0,0,3.58.34l.65-.14a25,25,0,0,0,2.75-.71,6.1,6.1,0,0,0,1.37-.56,6.11,6.11,0,0,1,1-.56,5.17,5.17,0,0,1,.74-.25,6.56,6.56,0,0,1,3.91.35,9.55,9.55,0,0,1,1.87,1.36,24.35,24.35,0,0,1,2.73,2.55,22.67,22.67,0,0,1,2.72,3.74,29.71,29.71,0,0,1,2,4.25c5,13.67,1.36,27.23,1.36,27.23-.81,3-4,13.17-16.85,24-20.71,17.38-48.73,21.44-71.15,24.68-13.76,2-29.77,3.18-38.29,15.32a44.56,44.56,0,0,0-3.58,7.15c-5.7,12.78-9.46,24.51-15.42,46.18-4.87,17.7-7.31,26.56-7.58,27.61a160.17,160.17,0,0,1-5.39,17.65c-2.34,6.2-3.66,8.36-6.11,13.94-4.24,9.62-4.85,13.48-9.77,28.24-1.75,5.25-4.65,13.92-8.83,24.63,0,0-10.47,26.85-22.17,41.07l-.14.17s-2,2.43-3.61,4.26c-2.79,3.18-84.64-1.68-122.89,14.64-8.61,3.67-13.54,7.79-16.48,13-6.8,12,2.47,20.22-2.21,32.58-3.36,8.87-16.72,15.79-43.46,29.62-15.52,8-20.74,9.58-24.41,16.54-5.1,9.68-.45,17-6.09,26.28-5.43,8.91-15.68,11.83-21,13.35-37.87,10.8-76-26.89-121.54-18.38-26.69,5-51.4,25-63.31,47-16.26,30.08-1.4,50.56-21.45,73.53-11.35,13-26.3,18.1-51.07,26.55a198.09,198.09,0,0,1-50,10.21c-18.27,1.13-27.41,1.7-39-.34-10.79-1.9-21.93-.11-32.85-1-1.24-.1-5.27-.45-7.15,1.87a3.69,3.69,0,0,0-.85,2.9c.26,1.08,1.37,1.76,3.58,3.06,1.87,1.1,2.18,1,3.6,2,1.2.84,1.3,1.13,2.45,1.93a17.08,17.08,0,0,0,3.48,1.86c4,1.7,8.14,3.44,13.28,2.89,2.17-.23,4.77-.51,7-2.55a9.75,9.75,0,0,0,2.9-5.28c1.11-5.88-4.63-11.78-7-14.12-25.05-24.71-104.67-76.1-108.94-79.32a13,13,0,0,0-2.55-1.54c-1.63-.75-3.48-1.2-7.49-1.36-2.92-.12-2.84.09-6.65.05s-4.48-.25-7.36-.2a59.15,59.15,0,0,0-6.24.49,145.08,145.08,0,0,0-19.75,4.09c-7.89,2.29-13.83,4-21.28,7.83a80.56,80.56,0,0,0-22.46,16.17c-.77.81-5.18,6-14,16.34,0,0-1.78,2.09-4.43,5.28-2.19,2.64-3.63,4.41-5.1,6.29s-2.07,2.65-2.6,3.43c-.26.37-.82,1.21-1.67,2.32,0,0-.41.54-.84,1.06-6.75,8.28-13.11,10.38-13.11,10.38a18.92,18.92,0,0,1-7.66.86c-2.35-.13-3.18-.56-3.74-1-2.15-1.69-1.9-4.92-1.87-5.27.07-.73.36-2.59,3.06-5.45,2-2.14,3.83-3.18,8.51-5.79,5.39-3,8.1-4.51,8.85-4.76a35.43,35.43,0,0,1,10.9-1.53c2,0,3.7.06,7.7-.06,2-.06,3-.09,4.2-.18.67,0,2.69-.22,4.06-.29.77,0,1.41-.06,1.59-.06h.85c1.25,0,6,.19,6.79.26,6.28.5,69.43,16,69.44,16h0c3.62,2.66,9.5,7.17,16.34,13.27a229.12,229.12,0,0,1,16.35,16.17c21.8,23.41,47.81,47.17,60.93,62.13,3.61,4.12,6.6,7.79,6.6,7.79,4.37,5.37,4.15,5.55,8.85,11.41,3.62,4.5,5.24,6.25,8.72,10.93,1.67,2.24,2.5,3.36,3.07,4.25a43.27,43.27,0,0,1,6,16.34c1.07,6,1.9,10.71.17,16.51a23,23,0,0,1-7.23,11.71c-8.46,6.94-20.54,5-25.53,2.42a86.55,86.55,0,0,1-7.66-4.59c-.3-.2-1.69-1.13-3.53-2.48-4.6-3.35-6.12-5-10.09-7.76-1.56-1.08-2.7-1.82-2.7-1.82-1.74-1.12-2-1.2-3.65-2.28-1.27-.84-2.26-1.56-2.72-1.9l-.41-.31c-1.24-.92-5.94-4.74-8-6.69-6.71-6.18-19.61-23.24-30.38-33.45-3.61-3.43-6.27-7.8-10-11.1a9.34,9.34,0,0,1-3.07-4.34c-.87-2.88-.19-6.9,2.17-8,1.41-.66,3,0,4.35.51,3.4,1.38,5.33,3.77,7.27,6.12,2.3,2.79,4.86,5.38,7,8.3,9.57,13.07,9.68,12.1,17.82,23.7,4.29,6.13,6.93,10.19,7.71,11.41,1.2,1.86,3.44,5.39,6.16,10a217.29,217.29,0,0,1,10.57,19.39c3.52,7.5,5.28,11.25,6.13,15.32,1.18,5.64,3.22,15.43-2.56,23.87-4.83,7-12.43,9.22-15.19,9.83s-8.24,1.37-18.51-2.42c-14.21-5.24-22.81-14-40-31.54-6.26-6.39-8.71-9.64-10.33-13.35a52,52,0,0,0-3.67-7.39c-1.63-2.66-2.12-2.86-3.87-5.81-2.37-4-3.11-6.43-2.94-8.68,0-.57.19-2.46,1.28-2.94a2.7,2.7,0,0,1,1.3-.16,3.32,3.32,0,0,1,1.25.42c3.26,1.83,5.44,3.05,7.66,5.36.78.81,1.45,1.61,1.45,1.61.62.73.85,1.08,1.61,2,0,0,.54.66,1.37,1.62,1.63,1.88,3.53,3.66,6.67,6.78,1.25,1.24,2.2,2.2,2.93,2.94,1.88,1.91,3.33,3.39,4,4.06,1.86,1.92,10.2,10.58,12.83,15,.62,1,1.17,2.08,1.17,2.08s.86,1.65,1.61,3.5a88.56,88.56,0,0,1,4.72,14.3c1.09,5.47,2.28,11.42,0,18.26-.93,2.79-3,9.07-8.93,12.38-6.16,3.45-14.13,2.36-17.37,1.92l-.75-.11a47.76,47.76,0,0,1-14.57-4.89,94.34,94.34,0,0,1-25-18.24c-4.23-4.61-6.9-9.54-12.25-19.4-.66-1.22-2.65-5-1.54-8.68a3.2,3.2,0,0,1,1.28-2c2.12-1.29,6,1.29,6.77,1.78.18.12.39.26.69.49,3.36,2.56,6.19,7.23,7.22,9,3.39,5.68,5.1,8.54,5.62,9.83a42.77,42.77,0,0,1,2.3,8c2,10.14,3.54,17.84-.39,25.15a22.3,22.3,0,0,1-8.55,8.68c-6.95,3.9-14,2.64-18,1.92-9.27-1.66-15.17-6.67-20.55-11.24a22.42,22.42,0,0,1-5.24-5.87,21,21,0,0,1-2.55-12.64c.28-2.24.59-4.48,2.43-6.12.41-.37,2.93-2.51,5.48-1.41a4.88,4.88,0,0,1,2.69,4.72c-.06.72-.55,1.63-1.54,3.45-.9,1.66-1.22,1.86-1.85,3.19a21.34,21.34,0,0,1-1.07,2s-.19.31-.4.61c-4.23,6.16-12.25,9.83-12.25,9.83a34.81,34.81,0,0,1-21.7,2.17c-4.28-1-7.24-1.62-9.45-4.22-4.27-5-2.08-13-.38-19.15s4.88-17.73,15.44-23.61c2-1.09,8.42-4.56,15.58-2.68,1.49.39,7.28,1.92,8.42,6.25a6.75,6.75,0,0,1-.89,5.36c-3.2,4.29-12.87,3.11-18.38,4-1.07.17-2.1.4-2.1.4-1.39.3-2.36.59-3,.77,0,0-.93.27-4.72,1.13-6.29,1.43-16.73,3.81-23.11,4.21-9,.56-25.55-1.87-30-11.87-3.25-7.3,1.27-15.67,4.6-21.83,7.66-14.18,20.38-21,33.57-28.09a58.75,58.75,0,0,1,13.92-5.61c5.05-1.28,12.76-2.47,20.93-.26,4.87,1.32,6.74,3,7.79,4.34a16,16,0,0,1,2.68,6.39,18.08,18.08,0,0,1,.24,2.56c.16,4.05-.58,5.39-.62,8a17.6,17.6,0,0,0,2.3,8.43c1.1,2.24,2.44,5,4.59,5.1a3.76,3.76,0,0,0,2.55-1c1.21-1,2.32-2.86,2.3-7.66,0-5.65,0-10.38-3.44-14-4.13-4.41-10.46-4.21-14.3-4.09-7.82.25-12.46,3.23-19.79,6.52-4.12,1.85-1.1.21-24.51,8-8.39,2.79-32.18,10.79-44.51,8.36-.79-.16-1.58-.36-1.58-.36-2.09-.54-10.83-2.81-14.8-9.57-3.39-5.77-1.81-12.25-1.28-14.43,2-8.19,7.74-12.87,15.19-18.77,7.14-5.65,18.15-14.15,34.47-16.34a49.66,49.66,0,0,1,19.66,1.41c4.6,1.29,11.05,3.11,12,7.53a7.58,7.58,0,0,1-2.81,7c-5.22,4.19-15.27-.52-19.66-3.83a33.31,33.31,0,0,1-2.81-2.41,34.14,34.14,0,0,1-6-7.59c-3.84-6.43-19.06-11.29-22.08-12.25-14.88-4.75-26.58-3.66-41.11-2.3a39,39,0,0,0-14.55,4c-3.44,1.75-6.23,3.17-8.17,6.25-4.61,7.32.05,16.93,1,18.77A24.89,24.89,0,0,0,383,1551.87c3.82,2.2,9.26,5.33,14.55,3.07,4.84-2.07,6.45-7.31,6.52-7.54a12.51,12.51,0,0,0,0-6.51c-2.39-10.67,1-12-1.79-26.17-1.81-9.21-4.37-14.42-7.15-18.38-.05-.07-.34-.48-.71-1-6.41-8.59-15.65-13.32-19.21-15.11-11.83-5.93-17.75-8.9-24.51-11-74.64-23.2-109.78-27.58-109.78-27.58-49-6.11-130.17-21.16-240.94-43.4"/></svg>