<svg id="레이어_1" data-name="레이어 1" xmlns="http://www.w3.org/2000/svg" viewBox="0 0 478.48 548.43"><defs><style>.cls-1{fill:none;stroke:#040000;stroke-miterlimit:10;}</style></defs><path class="cls-1" d="M75.08,282.48a150.53,150.53,0,0,0,2.13-15.55c.62-8.5,0-11.81.35-19.36.27-5.14.81-8.06,2.88-19.6,6.32-35.18,6.6-37.45,6.53-41.78-.25-15.87-.91-20.64-.91-20.64-.31-2.2-.4-4.5-.6-9.1s-.24-9.49,2.6-12.3l.31-.29a10.55,10.55,0,0,1,7.1-3,9.67,9.67,0,0,1,1.07.1,9.77,9.77,0,0,1,4,1.68c1.35.92,4.24,1.48,9.95,2.55,4,.74,10.46,1.84,10.47,1.78a83.63,83.63,0,0,0-20.42-.85,11,11,0,0,0-6.3,2.21c-2.7,2.21-3.41,5.51-3.75,7.47-1.8,10.3-.15,21.65.51,27,.79,6.36.78,12.8,1.36,19.19,1.66,18.34,3.29,62.69,1.28,110.57-.55,13.08-1.77,33.48-4.21,74.28,0,0-1.41,23.58-1,32.18,0,.39.12,2.27,0,4.81s-.35,4.15-.41,4.64a105.52,105.52,0,0,0-.25,16C89,456,120.29,472.71,132.71,463.58c8.61-6.33.4-19.37-4.09-70.82-2.08-23.82-2.58-48.49-3.57-97.83-.14-7.08-.22-13.76-.22-13.76-.13-12.07-.09-21-.07-24.6.09-23.53.13-35.29-.22-41.89-1.89-35.55-9.66-51.11.73-73.58.22-.48.48-1,.8-1.66,29.72-58.52,231.21-5.09,247.69,2.88a21.15,21.15,0,0,1,3.74,2.38c4.75,4,5.8,9.13,8.18,27.86,0,0,2.9,22.81,2.72,32.44v2.59a46.16,46.16,0,0,0,.4,5C389.94,221.4,394,295,394,295c3.71,67.23,3.61,67.37,3.84,69.45a158.29,158.29,0,0,1,1.05,18.46v.24c0,15.62,2.31,38.29,2.39,41.44v.74a15.06,15.06,0,0,1-.42,3c-.42,1.61-2.64,4.55-4.34,5.86-6.94,5.35-33,4.88-57.2,8.15l-2.62.37c-53.4,7.54-108.86,15.23-147.22,17.59-4.87.3-8.85.48-9.62.51-21.58.95-32.37,1.42-42.77.13-27-3.44-41.3-14.56-52.3-17.46-.34-.09-2.18-.56-2.17-1.14,0-.87,4.1-1.05,8.43-2.42a32.71,32.71,0,0,0,9.32-4.84c7.25-5,10.82-12.19,12.38-15.42,7.07-14.62,6.56-31.93,6.39-38C118.47,358,117.67,317.82,118,297c.25-16.54,1.2-20.26,0-28.85a73.18,73.18,0,0,1-.47-18.29c.2-2,.24-1.52,1-6.54,0,0,2.93-19.94,1.65-30.89-.13-1.12-.33-2.21-.33-2.21-.17-1-.34-1.66-.4-1.94-.32-1.36-.49-2.51-.82-4.72-1.11-7.42-1.84-29.46.51-42.93a9.35,9.35,0,0,1,1.53-3.95c1.33-1.89,3.7-3.57,9.7-4.71a43.22,43.22,0,0,1,11.24-.77c11.35,1.17,29.84.37,56.05-.76,1.9-.08,7.74.46,19.4,1.53,4,.36,9.29.9,9.84,3.18.16.65-.49,1.84-1.79,4.2a31.84,31.84,0,0,1-2.94,4.72c-1.95,2.49-3,3.88-5.11,4.71a8,8,0,0,1-6.38,0l-.21-.12c-.29-.17-2.58-1.59-2.85-3.83-.24-2,1.29-3.57,1.91-4.2a8.34,8.34,0,0,1,5.27-2.2c1.24-.16,3.34-.42,4.08.64a4.81,4.81,0,0,1,.66,2.42v.13c0,1.61-2.1,3-2.55,3.31-1.1.72-3,2-4.09,1.27-.81-.53-.76-1.89-.64-3.69.32-4.61.48-6.91,1-8.66.87-2.93,1.25-11.21,2-27.77.32-7,.44-12.63.47-13.89.16-7.36.08-10.47.31-17.64.11-3.3.23-7,.49-10.76.79-11.27,1.36-19.51,5.24-28.92,4-9.78,8.79-13.91,12.13-16l.15-.09c3.18-2,11.69-6.76,21.85-4.49l.94.23c5.48,1.45,9.32,4.36,15.15,9.7,5.53,5.06,4.19,4.38,8.36,8s6.6,5.29,10,8.8a77.32,77.32,0,0,1,5.38,6.34c.36.48.7.94,1.06,1.49a29.93,29.93,0,0,1,2.14,3.83c.58,1.27,3.66,6.54,9.8,17.1l.23.4c1.3,2.22,10.49,18.12,14.45,29.28a61.39,61.39,0,0,1,2.24,8.52c.23,1.35.34,2.42.34,2.42.11,1,.09,1.43.18,2.39a20.75,20.75,0,0,0,.41,2.77,86,86,0,0,0,2.57,10.14c.13.43.14.45.22.7,1.73,5.58,3.69,11.9,1.83,18.28-.47,1.59-1.55,3.32-3.71,6.76,0,0-1.26,2-2.68,2.29h-.32a4.34,4.34,0,0,1-2.11-.32,14.83,14.83,0,0,1-1.89-1,14.29,14.29,0,0,0-2.32-1.23,3.85,3.85,0,0,1-1.76-.93,7.59,7.59,0,0,1-2.56-7.13,6.43,6.43,0,0,1,4.73-4.72c3.69-.73,6.67,2.8,7.66,5.35.31.81,1.16,3,0,4.59s-3.73,1.44-4.09,1.4a5.65,5.65,0,0,1-3.7-2c-2.35-3-.46-9.57,3.06-13.63,6.63-7.65,19-6.27,20.78-6.06l.42.06c15.9,2.25,24.16,17.7,25.53,20.26a52.62,52.62,0,0,1,5.62,18.09c1.42,11,1.64,26.62,1.66,28.27,0,0,.36,28.94.77,40.13.12,3.27.28,6.49.28,6.49.16,3.21.31,5.54.37,6.63.26,4.1.27,5.11.7,14,1.11,22.62,1.3,21.3,1.2,22.09a12.76,12.76,0,0,0,.38,5.73,13.28,13.28,0,0,0,4,5.86,15.57,15.57,0,0,0,6.64,3.45l.51.12"/></svg>