<svg id="레이어_1" data-name="레이어 1" xmlns="http://www.w3.org/2000/svg" viewBox="0 0 478 548"><defs><style>.cls-1{fill:none;stroke:#040000;stroke-miterlimit:10;}</style></defs><path class="cls-1" d="M463.36,219.07c-18.27,1.13-27.41,1.7-39-.34-10.79-1.9-21.93-.11-32.85-1-1.24-.1-5.27-.45-7.15,1.87a3.72,3.72,0,0,0-.85,2.9c.26,1.08,1.37,1.76,3.58,3.06,1.87,1.1,2.18,1,3.6,2,1.2.84,1.3,1.13,2.45,1.93a17.12,17.12,0,0,0,3.48,1.86c4,1.7,8.14,3.44,13.28,2.89,2.17-.23,4.77-.51,7-2.55a9.72,9.72,0,0,0,2.9-5.28c1.11-5.88-4.63-11.78-7-14.12-25.05-24.71-104.67-76.1-108.94-79.32a12.73,12.73,0,0,0-2.55-1.54c-1.63-.75-3.48-1.2-7.49-1.36-2.92-.12-2.84.09-6.65.05s-4.48-.25-7.36-.2a59.16,59.16,0,0,0-6.24.49,144.52,144.52,0,0,0-19.75,4.09c-7.89,2.29-13.83,4-21.28,7.83a80.66,80.66,0,0,0-22.46,16.17c-.77.81-5.18,6-14,16.34,0,0-1.78,2.09-4.43,5.28-2.19,2.64-3.63,4.41-5.1,6.29s-2.07,2.65-2.6,3.43c-.26.37-.82,1.21-1.67,2.32,0,0-.41.54-.84,1.06-6.75,8.28-13.11,10.38-13.11,10.38a18.94,18.94,0,0,1-7.66.86c-2.35-.13-3.18-.56-3.74-1-2.15-1.69-1.9-4.92-1.87-5.27.07-.73.36-2.59,3.06-5.45,2-2.14,3.83-3.18,8.51-5.79,5.39-3,8.1-4.51,8.85-4.76a35.6,35.6,0,0,1,10.9-1.53c2,0,3.7.06,7.7-.06,2-.06,3-.09,4.2-.18.67,0,2.69-.22,4.06-.29.77,0,1.41-.06,1.59-.06h.85c1.25,0,6,.19,6.79.26,6.28.5,69.43,16,69.44,16h0c3.62,2.66,9.5,7.17,16.34,13.27a226.76,226.76,0,0,1,16.35,16.17c21.8,23.41,47.81,47.17,60.93,62.13,3.61,4.12,6.6,7.79,6.6,7.79,4.37,5.37,4.15,5.55,8.85,11.41,3.62,4.5,5.24,6.25,8.72,10.93,1.67,2.24,2.5,3.36,3.07,4.25a43.12,43.12,0,0,1,6,16.34c1.07,6,1.9,10.71.17,16.51a23,23,0,0,1-7.23,11.71c-8.46,6.94-20.54,5-25.53,2.42a87.13,87.13,0,0,1-7.66-4.59c-.3-.2-1.69-1.13-3.53-2.48-4.6-3.35-6.12-5-10.09-7.76-1.56-1.08-2.7-1.82-2.7-1.82-1.74-1.12-2-1.2-3.65-2.28-1.27-.84-2.26-1.56-2.72-1.9l-.41-.31c-1.24-.92-5.94-4.74-8-6.69-6.71-6.18-19.61-23.24-30.38-33.45-3.61-3.43-6.27-7.8-10-11.1a9.37,9.37,0,0,1-3.07-4.34c-.87-2.88-.19-6.9,2.17-8,1.41-.66,3,0,4.35.51,3.4,1.38,5.33,3.77,7.27,6.12,2.3,2.79,4.86,5.38,7,8.3,9.57,13.07,9.68,12.1,17.82,23.7,4.29,6.13,6.93,10.19,7.71,11.41,1.2,1.86,3.44,5.39,6.16,10A216.38,216.38,0,0,1,356.12,364c3.52,7.5,5.28,11.25,6.13,15.32,1.18,5.64,3.22,15.43-2.56,23.87-4.83,7-12.43,9.22-15.19,9.83s-8.24,1.37-18.51-2.42c-14.21-5.24-22.81-14-40-31.54-6.26-6.39-8.71-9.64-10.33-13.35a50.83,50.83,0,0,0-3.67-7.39c-1.63-2.66-2.12-2.86-3.87-5.81-2.37-4-3.11-6.43-2.94-8.68,0-.57.19-2.46,1.28-2.94a2.74,2.74,0,0,1,1.3-.16,3.43,3.43,0,0,1,1.25.42c3.26,1.83,5.44,3.05,7.66,5.36.78.81,1.45,1.61,1.45,1.61.62.73.85,1.08,1.61,2,0,0,.54.66,1.37,1.62,1.63,1.88,3.53,3.66,6.67,6.78,1.25,1.24,2.2,2.2,2.93,2.94,1.88,1.91,3.33,3.39,4,4.06,1.86,1.92,10.2,10.58,12.83,15,.62,1,1.17,2.08,1.17,2.08s.86,1.65,1.61,3.5a87.72,87.72,0,0,1,4.72,14.3c1.09,5.47,2.28,11.42,0,18.26-.93,2.79-3,9.07-8.93,12.38-6.16,3.45-14.13,2.36-17.37,1.92l-.75-.11a47.56,47.56,0,0,1-14.57-4.89,94.14,94.14,0,0,1-25-18.24c-4.23-4.61-6.9-9.54-12.25-19.4-.66-1.22-2.65-5-1.54-8.68a3.21,3.21,0,0,1,1.28-2c2.12-1.29,6,1.29,6.77,1.78.18.12.39.26.69.49,3.36,2.56,6.19,7.23,7.22,9,3.39,5.68,5.1,8.54,5.62,9.83a42.25,42.25,0,0,1,2.3,8c2,10.14,3.54,17.84-.39,25.15a22.29,22.29,0,0,1-8.55,8.68c-6.95,3.9-14,2.64-18,1.92-9.27-1.66-15.17-6.67-20.55-11.24a22.42,22.42,0,0,1-5.24-5.87,21,21,0,0,1-2.55-12.64c.28-2.24.59-4.48,2.43-6.12.41-.37,2.93-2.51,5.48-1.41a4.89,4.89,0,0,1,2.69,4.72c-.06.72-.55,1.63-1.54,3.45-.9,1.66-1.22,1.86-1.85,3.19a21.29,21.29,0,0,1-1.07,2s-.19.31-.4.61c-4.23,6.16-12.25,9.83-12.25,9.83a34.8,34.8,0,0,1-21.7,2.17c-4.28-1-7.24-1.62-9.45-4.22-4.27-5-2.08-13-.38-19.15s4.88-17.73,15.44-23.61c2-1.09,8.42-4.56,15.58-2.68,1.49.39,7.28,1.92,8.42,6.25a6.72,6.72,0,0,1-.89,5.36c-3.2,4.29-12.87,3.11-18.38,4-1.07.17-2.1.4-2.1.4-1.39.3-2.36.59-3,.77,0,0-.93.27-4.72,1.13-6.29,1.43-16.73,3.81-23.11,4.21-9,.56-25.55-1.87-30-11.87-3.25-7.3,1.27-15.67,4.6-21.83,7.66-14.18,20.38-21,33.57-28.09a58.75,58.75,0,0,1,13.92-5.61c5.05-1.28,12.76-2.47,20.93-.26,4.87,1.32,6.74,3,7.79,4.34a15.92,15.92,0,0,1,2.68,6.39,18.32,18.32,0,0,1,.24,2.56c.16,4.05-.58,5.39-.62,8a17.67,17.67,0,0,0,2.3,8.43c1.1,2.24,2.44,5,4.59,5.1a3.75,3.75,0,0,0,2.55-1c1.21-1,2.32-2.86,2.3-7.66,0-5.65,0-10.38-3.44-14-4.13-4.41-10.46-4.21-14.3-4.09-7.82.25-12.46,3.23-19.79,6.52-4.12,1.85-1.1.21-24.51,8-8.39,2.79-32.18,10.79-44.51,8.36-.79-.16-1.58-.36-1.58-.36-2.09-.54-10.83-2.81-14.8-9.57-3.39-5.77-1.81-12.25-1.28-14.43,2-8.19,7.74-12.87,15.19-18.77,7.14-5.65,18.15-14.15,34.47-16.34a49.61,49.61,0,0,1,19.66,1.41c4.6,1.29,11.05,3.11,12,7.53a7.59,7.59,0,0,1-2.81,7c-5.22,4.19-15.27-.52-19.66-3.83a32.18,32.18,0,0,1-2.81-2.41,34.15,34.15,0,0,1-6-7.59c-3.84-6.43-19.06-11.29-22.08-12.25-14.88-4.75-26.58-3.66-41.11-2.3a38.9,38.9,0,0,0-14.55,4c-3.44,1.75-6.23,3.17-8.17,6.25-4.61,7.32.05,16.93,1,18.77a24.86,24.86,0,0,0,10.12,10.05c3.82,2.2,9.26,5.33,14.55,3.07,4.84-2.07,6.45-7.31,6.52-7.54a12.4,12.4,0,0,0,0-6.51c-2.39-10.67,1-12-1.79-26.17-1.81-9.21-4.37-14.42-7.15-18.38l-.71-1c-6.41-8.59-15.65-13.32-19.21-15.11-11.83-5.93-17.75-8.9-24.51-11"/></svg>