<svg id="레이어_1" data-name="레이어 1" xmlns="http://www.w3.org/2000/svg" viewBox="0 0 478 548"><defs><style>.cls-1{fill:none;stroke:#040000;stroke-miterlimit:10;}</style></defs><path class="cls-1" d="M124.81,99.48a212.41,212.41,0,0,1,5.37,31.4c.08,1,.51,6,.7,12.78.44,15.6-1,19.33.06,31.65a110.77,110.77,0,0,0,1.86,14.27c1.3,6.45,2.51,9.26,3.45,15.9a84.58,84.58,0,0,1,.82,10.43c.17,7.08-.58,12.57-6.13,40.59-.79,4-1.57,7.89-2.42,13.39-1.08,7-1.6,12.25-1.8,14.17-.65,6.29-1.39,11-5,32.95-10.89,66.69-11.28,67.11-10.72,69.7,0,0,2.29,10.52-1.53,14.56-.24.26-1.36,1.38-2.56,2.55-.91.88-1.88,1.81-4.21,4-2.52,2.34-3.16,2.9-3.45,3.18-3.14,3-5,10.51-3.06,16.85,2,6.52,8.28,12.73,9.45,16.34a24.67,24.67,0,0,1,.86,3.9s.11.86.14,1.72c.13,3.48-1.75,8.08-2,11.23-.36,4.58,2.56,8.3,3.07,8.94,2.85,3.63,6.9,4.64,14.3,6.38a81,81,0,0,0,11.49,1.79c17.72,1.53,26-2.45,27.57-3.32a31.55,31.55,0,0,0,2.79-1.8c1.7-1.3,2.19-2.08,3.76-3.35a22.09,22.09,0,0,1,3.41-2.25c6.54-3.75,14.27-4.66,18.38-5.11l.9-.09a179.86,179.86,0,0,1,25-.59c2,0,4,.12,4.15.13,3.79.13,6.56.28,6.85.3,13.34.7,32.88-1.28,32.88-1.28,20.89-2.12,56.85-.6,77.61,4.25,10.42,2.43,21.39,1.74,31.83,4.09a10.21,10.21,0,0,0,4.6,0,9.13,9.13,0,0,0,4.77-2.9c1.93-2.37,2.12-5.54,2.21-7,.11-1.75-.07-3.72.58-3.91.3-.09.52.26.73.25,1.7-.16.9-17.1.9-17.1-1.08-23,0-30.25-2-43.75a86.29,86.29,0,0,0-2.5-12.55c-1-3.37-1.64-4.79-2.66-8.77-.2-.82-1.08-4.32-1.84-9.48a122.29,122.29,0,0,1-1.27-16.1c-.21-14.57,2-15.22,1.1-26.29A101,101,0,0,0,371,307.58c-.89-3.77-1.5-5.32-3.58-12.56,0,0-1.79-6.22-3.42-12.44-2.61-10-4-15.13-4.94-22.29-1.77-13-.78-21.25-.51-23.32.36-2.72.87-5.36,1-6a99.93,99.93,0,0,1,4-14.44c2.31-6.65,2.28-14.37,2.21-29.79,0-9.39-.65-17-1.87-32.17-.93-11.62-1.4-17.43-2-20.6a45,45,0,0,1-.7-6,25.75,25.75,0,0,1,0-3.65c.31-13.34-2.07-19.34-1.87-30.64a7,7,0,0,0-1-4.26c-1.8-2.61-5.74-3.26-7.66-3.57a21.26,21.26,0,0,0-2.87-.26,34.14,34.14,0,0,0-7,.43c-3.45.49-6.57-.61-11.58-2.38C321.66,81,312.75,75.8,308,74.27a10.45,10.45,0,0,0-3.41-.51,8.6,8.6,0,0,0-3.74.85,7,7,0,0,0-.95.56,10.71,10.71,0,0,0-3,3c-1.49,2.21-3.56,3.78-6.12,6.81-10.32,12.21-30,49.67-47.32,52.25-24.32,3.63-40.48-62-68.6-58.72-15.59,1.84-45,26.11-45.27,26.38l-.24.2a2.2,2.2,0,0,1-.68.31c-.27.06-1,.15-1.21-.19s.22-1,.32-1.15c.42-.6,1-.82,2.29-1.47.47-.23.93-.49,1.41-.7,2.79-1.25,34.06-24.54,48.32-26.62,25.16-3.67,39.73,52.5,62.68,49.54,21.61-2.79,39-56.5,53.49-55.28l.85.1C305.8,71,311.43,80.8,314.59,87c21.65,42.59,38.44,75.61,24,101.11-1.91,3.37-6.56,11.32-15.83,14.8-7.44,2.79-17.79,2.69-25.19-3.06a24.4,24.4,0,0,1-6.13-7.32c-2.51-4.27-5.77-12.36-3.07-14.81,2.44-2.21,9.93,0,12.26-.51a3.79,3.79,0,0,1,1.5-.06,2.79,2.79,0,0,1,1.39.57c.49.44.56,1.49.68,3.58a9.55,9.55,0,0,0,.16,2c.06.5.1.68.16,1.12.13,1,.16,1.76.19,2.47.07,1.91-.07,2.55.39,3.55a2.86,2.86,0,0,0,.3.54,4.44,4.44,0,0,0,2.21,1.7,4.05,4.05,0,0,0,2.55.17c1.33-.44,1.92-1.72,2.55-3.06a14.92,14.92,0,0,0,1.2-6,21,21,0,0,0-.07-2.75c-.17-1.8-.45-2.26-.52-3.93,0-.38,0-1.09.08-2.51.15-3.33.22-3.1.17-3.58a8.67,8.67,0,0,0-2-4.59,5.39,5.39,0,0,0-2.38-1.87,5.83,5.83,0,0,0-2.72-.17c-1,.1-1.43.15-1.71.51-.5.63.2,1.35-.17,2.55a3.35,3.35,0,0,1-1.36,1.7,4.5,4.5,0,0,1-2.89.34H288.89c-3-.4-10.35-22-.34-31.32,3.17-2.94,12.73-1.74,31.83.68a3.77,3.77,0,0,1,2.56,1.2,4.18,4.18,0,0,1,.68,2.55q-.18,1.55-.51,3.06a7.15,7.15,0,0,1-.35,1.34,5.3,5.3,0,0,1-.65,1.22c-.59.73-1.56.87-2.73,1-3,.32-4.76.34-4.76.34h-4.26a11.58,11.58,0,0,0-4.19.31l-.57.2a10.47,10.47,0,0,0-2.39,1.36c-2.06,1.43-2.18,1.73-2.21,2a2.39,2.39,0,0,0,.23,1.08,3.17,3.17,0,0,0,.62.92,5.69,5.69,0,0,0,1.53,1.36,5.51,5.51,0,0,0,3.58.34l.65-.14a26.43,26.43,0,0,0,2.75-.71,6.47,6.47,0,0,0,1.37-.56,5.45,5.45,0,0,1,1-.56,3.79,3.79,0,0,1,.74-.25,6.47,6.47,0,0,1,3.91.35,9.5,9.5,0,0,1,1.87,1.36,25.29,25.29,0,0,1,2.73,2.55,22.77,22.77,0,0,1,2.72,3.74,31.09,31.09,0,0,1,2,4.25c5,13.67,1.36,27.23,1.36,27.23-.81,3-4,13.17-16.85,24-20.71,17.38-48.73,21.44-71.15,24.68-13.76,2-29.77,3.18-38.29,15.32a43.42,43.42,0,0,0-3.58,7.15c-5.7,12.78-9.46,24.51-15.42,46.18-4.87,17.7-7.31,26.56-7.58,27.61A162.5,162.5,0,0,1,169.8,357c-2.34,6.2-3.66,8.36-6.11,13.94-4.24,9.62-4.85,13.48-9.77,28.24-1.75,5.25-4.65,13.92-8.83,24.63,0,0-10.47,26.85-22.17,41.07l-.14.17s-2,2.43-3.61,4.26"/></svg>