<svg id="레이어_1" data-name="레이어 1" xmlns="http://www.w3.org/2000/svg" viewBox="0 0 457 600"><defs><style>.cls-1{fill:none;stroke:#000;stroke-miterlimit:10;}</style></defs><path class="cls-1" d="M136.84,533c2.39-2,3-4.8,3.52-7.08,3.28-16.23.42-23.41,5.39-29a16.49,16.49,0,0,1,7-4.31c4.45-1.61,9.84-1.75,12.87-.3,11.25,5.42,9.85,42.71-2.89,47.59-5.41,2.08-13.94-1.29-17.52-6.51-1-1.43-2.37-4.14-1.48-5.17s4.24.72,8.59,2c.87.26,14.61,4.17,18.92-.84,2.17-2.52,1.23-6.44-.42-12.92-.58-2.25-5.12-20.06-9.95-19.65-4.55.39-9.51,16.9-4.15,21.37,3.15,2.61,10,1.24,10.62-.9.53-1.9-3.82-4.47-4-4.59-3.55-2.06-8.93-2.67-12.15-.07s-2.72,7.07-3.2,7c-1.46-.06-2.94-40.28,3.84-41.44,3.21-.55,4.89,8.19,13.67,10.39,5.56,1.39,10.26-.77,11.82-2.11.57-.48,1.72-1.47,1.67-2.7,0-.53-.26-.86-.43-1.92a10.17,10.17,0,0,1-.11-1.74c0-4.53,0-9.88-2.35-12-1.45-1.3-3.46-1.14-6.23-.91-7,.58-14.43,5-14,8.36a2.45,2.45,0,0,0,.88,1.6c3.23,2.57,10.12-6.95,21.83-10,9.84-2.53,15.31,1.55,26.87-2.86,2.11-.8,4.63-2,5-4,.65-3.41-5.15-7.08-7.58-8.76-7.1-4.92-11.65-12.15-20.77-26.6-13.78-21.84-9.25-43.2-13.2-43.31s-9.84,20.63-5.28,23.48c1.22.76,3,.12,4-.55,6.09-4.13,3-23-3.31-24.82-1.93-.54-4.51.41-10.76,6.93-9.67,10.08-20.06,20.92-23.65,39.51-2.62,13.53-2.24,34.28,5.9,37.26,4.47,1.64,10-2.54,10.65-3,6.45-4.87,3-10.19,9.76-18.26,4-4.85,7.86-6,10.43-12.3.9-2.18,1.48-3.62,1.38-5.65-.31-5.89-6-6.7-7.67-13.91-.31-1.34-.62-3.48-2.25-4.36a4.31,4.31,0,0,0-3.12-.14c-4.42,1.19-15.22,11.23-14.44,24.76,0,.58.71,10.86,5.24,11.9,2,.46,4.52-.87,5.83-2.83,4.19-6.32-5.25-18-2.56-20.18,2-1.6,8,4.24,10.39,2.34,1.57-1.25.5-5,.12-6.32-1.56-5.45-6.55-13.61-12-13.54-9.22.12-17.09,23.75-16.45,42.3.33,9.37,2.62,11.64,4,12.54,5.33,3.34,15.77-1.8,22-8,6.77-6.69,6.49-12.42,11.06-13.26,4.2-.77,6.32,3.7,15,10.08,6.8,5,17.19,12.65,27.44,10.77,4-.72,7.41-3.18,14.31-8.09,9.53-6.77,11.08-10.58,14-9.82,6.5,1.72,6.1,22.78,6.06,24.48-.1,3.76-.15,5.63-1,7.68-.72,1.8-3.87,8.53-21.29,13-19.82,5.16-37.65,2.14-37.63,1.15s15.24,3.48,30.51-4.61c12.42-6.57,18.58-18.05,24.82-15.69,1.5.58,3.17,2,3.14,3.42-.08,3.09-8.44,6-9.58,4.43-.57-.76.55-2.72,1.52-3.79,5.26-5.72,16.61,3.64,27.07-.41,2.74-1.06,6.94-7.63,15.23-20.74,1.84-2.91,6.11-9.67,14.28-23.37,7.51-12.6,11.31-19.3,8.84-25.33a8,8,0,0,0-2.61-3.67c-4.13-3.08-10.59-.53-22.56,4.49-14.17,5.94-22.17,9.52-22.68,8.66-.73-1.24,14.59-10.42,13.13-13.61-.43-.93-2.14-1-3.31-1-9-.26-15.2,9.31-18.2,7.5a2.81,2.81,0,0,1-1.09-2.29c-.11-5.38,15.29-7.79,15.11-12.93a3,3,0,0,0-1.13-2.25c-4.17-3-17.26,9.6-20.64,7a5.28,5.28,0,0,1-1.66-2.49,5.15,5.15,0,0,1-.06-2.14c.75-3.77,21.06-7.52,21.45-12.31.27-3.29-9-6-8.29-8.45.4-1.39,3.84-1.74,5-1.87,3.93-.4,6.46,1,7.66-.36a2.54,2.54,0,0,0,.49-1.83c-.19-4.23-11-7.88-13.76-8.82-34.12-11.56-37.73-13.53-44.14-10.57a27.55,27.55,0,0,0-10.24,8.71c-8.58,10.86-9.23,25.36-7.28,26,2.11.7,9.12-14.31,11.75-20.42,8.51-19.72,8-31.37,14.73-33.27,3.63-1,7.16,1.44,11.45,4.54,31.17,22.57,35.39,30.94,50,35.9,9.06,3.09,16.76,3,27,3,9.23-.05,12.69-1.21,15.33-3.36,1.21-1,1.33-1.44,7.87-8.8,4.22-4.75,4.57-5,5.12-5.34.9-.53,3.33-1.77,14.64-.38,8.72,1.08,9.72,2.11,10.19,2.8,1.94,2.79.13,7.07-1.82,11.52-2.6,5.92-5.49,12.53-12.08,17.23-5.66,4-6.61,1.34-27.63,5.67a185.63,185.63,0,0,1-23.85,2.95c-3.11.19-8.7.43-9.65-1.89a2.92,2.92,0,0,1,.28-2.31c2-3.88,9.53-4,11.78-4,2.61-.07,49.51-1.61,57.87-18.57,2.62-5.29.47-10.09,5.09-13.89,4.39-3.61,9.44-1.85,12-5.69,1.91-2.83.75-6.11,0-10.58-.35-2.11,0-8.68.7-21.81,1.47-27.42,3.74-29,2.88-42.32-.65-10.11-1.65-25.58-8.59-27.67-5.26-1.59-11.76,5.15-19.27,13-9.29,9.65-15.27,19.93-14.38,20.63s7.27-13.34,22.22-18.58c5.88-2.06,11.69-2.25,14.82-7.24a13.51,13.51,0,0,0,1.71-8.37c-1.27-16-27.5-30.81-34.4-25.51-2.29,1.76-.9,4.54-2.65,15.62-1.31,8.22-2.85,11.61-4.28,17.34-3.56,14.35-2.26,27-1.5,34.44,1.19,11.63,4,20.87,4,34.46A23.44,23.44,0,0,1,325.21,327c-3.37,6.45-8.71,7.91-8.23,9.83,1,4.1,26.32,1.08,26.28-.21,0-1.08-17.56,2.2-23.63-6.66-1.61-2.34-1.87-6.29-2.38-14.19-.26-4-.31-8.44-.4-17.21-.07-7.26-.06-12-2.39-12.9a3,3,0,0,0-2,.07c-3.38,1-3.55,5.78-6.13,9.66-1.95,2.93-4.45,4.15-8.94,6.35-10.6,5.17-21.9,5.29-24.27,5.29-24.19,0-44.62-3.37-44.76-2.67s13.69,3.42,31.19,9.61c14.58,5.16,24.16,10,29.41,19.23.91,1.6,3.64,6.4,1.88,8.72-1.42,1.87-5.56,1.81-17.18-2.12a170.77,170.77,0,0,1-28-12.16c-26-15-39-22.66-39.91-29.49-.73-5.28,2.43-4.15,10-25.48,0,0,2.76-7.75,5.53-26.8.44-3,1.3-9.42-1.09-10.58a2.43,2.43,0,0,0-1.72-.06c-2.41.81-1.65,5.08-4.65,7.56a6.83,6.83,0,0,1-2.78,1.33c-7,1.88-12.5-9-22.45-9.16a16.87,16.87,0,0,0-6.34,1.34c-10.33,3.6-10.84,11.12-22,19-4.56,3.25-8.5,6-14,6.07-7.52,0-10.77-5.24-13.91-3.65-1.27.64-3.49,2.89-1,27,1.06,10.31,2.5,20-1.68,30.13-.94,2.28-2,4.13-3.56,4.35-1.75.25-4.39-1.52-12.39-18.33C106.29,285.31,103,277.36,103,277.36c-4.22-10.29-5.9-15.54-10-16.26-1.08-.19-3.15-.22-7.51,3.17-3.12,2.42-16,12.45-14.7,26,1.21,12.53,13.87,20.13,18.73,23,12.63,7.58,26.82,7.89,27.2,13.7a2.46,2.46,0,0,1-.31,1.64c-4.18,6.38-44.12-16.14-45.83-13.17-1,1.66,9.85,11.81,24.35,16.87,6.2,2.17,18.08,6.33,29.64,2.22,18.67-6.65,33.89-33.95,23.52-56.36S108.74,253.68,92,258.4c-1.63.46-22.28,6.62-29.28,24.14-3,7.53-4.71,20.18-1.06,22a2.54,2.54,0,0,0,2.28,0c3-1.57.89-9.57.6-15.19-.64-12.78,7.45-23,9.36-25.46,9.73-12.32,27.94-17.65,42.13-16.85,8.82.49,14,3.24,19.28-.42,3.49-2.4,6.17-7,10.93-15.11,2.19-3.73,3.86-7,7.53-8.23,2.12-.69,3.93-.34,6,.08,7,1.43,14.62,6.74,14.17,11.31a2.83,2.83,0,0,1-.81,1.86c-2.12,1.83-8.6-.72-10.93-4.4-3.29-5.22,1.35-13.33,4.36-18.59,7.37-12.89,17.19-19.36,29.36-27.39,3-2,11.27-7.27,21.63-7.81,4-.21,6.32.38,7.4,1.94,1.89,2.71-.67,7.45-1.87,9.76-8,15.44-12.3,31.1-11.75,31.4s9.07-13.73,21.17-30.47c8.23-11.38,10.94-14.07,15.15-14.81,4.52-.8,6.93,1.33,22.46,3.1,3.5.4,7.09.71,9.12-1.5s1.51-5.79,1.38-6.78c-.25-1.77-1.21-5.59-2.93-5.75-2.1-.2-5.13,5.1-5,10.17.08,3.18,1.46,7.87,4.22,8.38,2.3.42,4.57-2.2,5.09-2.85,4.44-5.48.9-13.18,4.75-15.45,1.32-.78,2.19-.15,4-1.43,1.12-.78,1.87-1.89,3.35-4.08,1.63-2.43,1.88-3.27,3-3.81a4.82,4.82,0,0,1,3-.21c5,1,11,8.57,16.71,11.58,8.89,4.7,15.53-2.46,20.17,2,4.94,4.79,2.95,18.29-3.72,22.4-5.57,3.42-12.41-.92-14.76,2.58-2.14,3.2,2.55,8.35-.5,13.79a8.65,8.65,0,0,1-2.36,2.78c-3.45,2.58-6.62.54-9,2.42-2.77,2.13-.43,6.11-2.72,9.28-2.7,3.76-10.73,4.8-15.79,1.94-11.19-6.32-12-34.07-3.91-43.21.94-1.06,3.94-4.06,3.67-7.85-.15-2.06-1.17-2.92-3.24-6.21-2.32-3.67-4.95-7.84-5.4-12.1a15.23,15.23,0,0,1,2.48-9.75c7.8-10.77,57.14-5.3,65.71,19.75,4.34,12.7-5.49,26.12-25.15,53-7.3,10-14.11,17.18-22.53,17-5.74-.09-10.72-3.57-12.13-4.56-4.1-2.86-11.74-10.06-13.34-15.65-.17-.56-.64-2.4-1.93-2.81s-2.51.67-2.89,1c-3.43,2.73-2.79,9.91-2.57,12.14.52,5.28,1.31,13.16,7.28,19.53,7.24,7.72,16.06,6.74,18.12,14.11a6.9,6.9,0,0,1,.14,4.42c-2.38,6.46-17,5.94-31,5.44,0,0-12-.43-18.45-5a21.33,21.33,0,0,1-4-3.65,17.54,17.54,0,0,1-2.47-4c-2.57-5.7-.87-10-3.48-11.52a2.78,2.78,0,0,0-1.54-.4c-4.87.35-12.45,19.17-5.39,31.32.32.56,5.57,9.32,14.7,11.24,4.69,1,10.46.19,11.86,3.23a3.08,3.08,0,0,1,.2,2.21c-1.69,4.64-18.65-.87-38.9,4.51-7.78,2.07-9.77,4.08-10.39,4.76-1.4,1.53-2.73,3.73-5.28,23.32-.54,4.19-1,8.35-3.41,13.41a37.69,37.69,0,0,1-3.44,5.85,139.14,139.14,0,0,0-11,19.61c-3.62,8.07,1,10.59,8.31,44.69,2.22,10.36,4.1,20.91,11.32,27.82a29,29,0,0,0,9.38,5.88A22.4,22.4,0,0,0,221,443.37c9-1.83,13.4-10.64,19.78-23.32,4.68-9.27,3.41-10.77,3-11.08-.95-.79-3.23.17-3.81.41a7.59,7.59,0,0,0-3.53,3.07c-1.17,2.06-.92,5.31,3,12.07,6.18,10.8,9.52,9.5,11.67,15.88,2.4,7.12-.7,11.89,3.36,16a9.38,9.38,0,0,0,5.51,2.77c11.78.62,12.91-43.43,34.92-51.8"/></svg>