<svg id="레이어_1" data-name="레이어 1" xmlns="http://www.w3.org/2000/svg" viewBox="0 0 329.36 379.91"><defs><style>.cls-1{fill:none;stroke:#040000;stroke-miterlimit:10;}</style></defs><path class="cls-1" d="M47.73,41.3A39.59,39.59,0,0,1,60,49.47a37.17,37.17,0,0,1,7.66,12.26c1.92,5,2.21,8.76,2.68,13.78C72,93.13,72.32,89.25,73,99.43c1.51,23.71.16,56-.85,75.23-.89,17-1.45,22.81-1.53,35.92-.12,20.88,1.18,30.79,1.87,35.4,2.85,18.86,5.36,35.46,14.81,38.13,7.45,2.1,18.42-4.65,23.32-11.23.14-.19,1.15-1.68,3.17-4.66,4.65-6.86,6.39-9.54,8.62-12.83,5.12-7.57,7.68-11.35,10.53-14.75,4-4.77,7.9-8.54,13.21-11.3a17.84,17.84,0,0,1,5-1.91c2.68-.54,6.28-.55,12.7,2.17a63.62,63.62,0,0,1,22.55,18.17,19,19,0,0,1,4.3,9.62,16,16,0,0,1,.17,3.66c-.12,1.6-.41,1.89-.64,2-.44.19-1-.18-1.19-.3a3.63,3.63,0,0,1-1.4-2.34,23.39,23.39,0,0,1-.34-8.17,59,59,0,0,1,2.08-8.9,72.86,72.86,0,0,1,6.88-14.89c2.89-4.81,5.71-9.52,11.19-14a24.82,24.82,0,0,1,5.79-4,21.69,21.69,0,0,1,3.53-1.23,24.19,24.19,0,0,1,3.79-.64c5.39-.63,5-.45,6.29-.68,3-.56,5.06-1,6.64-2.68s2.07-4.12,2.43-5.79a22,22,0,0,0,.34-2.42c.39-3.83.68-6.72-.26-10a8.59,8.59,0,0,0-2-4.17c-1-1-2.35-1.64-5.32-2.08-6.4-1-12.87.24-12.85,1,0,.17.38.27,1,.46,4.35,1.32,3.71,1.84,9.32,3.62a16.54,16.54,0,0,0,5.32.94,4.45,4.45,0,0,0,2.09-.39,5.57,5.57,0,0,0,2.46-3.19,6.67,6.67,0,0,0,.68-4.38,6.19,6.19,0,0,0-2.76-3.49c-3.45-2.36-7.67-1.28-8.68-1a18.34,18.34,0,0,0-2.77,1.19c-1.9.92-2.45,1.38-5.23,2.9-1.89,1-3.21,1.67-4.73,1.53a2.59,2.59,0,0,1-1.4-.51,3,3,0,0,1-.94-2.17,3.91,3.91,0,0,1,.26-1.66c1.26-3.44,4.6-8.41,6.13-10.77a8.08,8.08,0,0,1,3.19-3,4.24,4.24,0,0,1,1.06-.34,4.68,4.68,0,0,1,2.85.39c.82.41.8.75,1.75,1.57a10.23,10.23,0,0,0,3.23,1.83c1.67.67,2.5,1.07,3.62.89a3.2,3.2,0,0,0,2.72-2.38,4.54,4.54,0,0,0-.17-2.89,38.61,38.61,0,0,0-3.87-8c-1.38-2.08-2.22-3.34-3.53-5.06a13.19,13.19,0,0,1-2.77-5.32,4.23,4.23,0,0,1,0-2,3.85,3.85,0,0,1,1.54-2.13,4.61,4.61,0,0,1,1.74-.59,13.88,13.88,0,0,1,3.28-.39c1.89,0,3.34,0,4.76,1a6,6,0,0,1,2.09,2.59,9.15,9.15,0,0,1,.47,2.85,15.26,15.26,0,0,1-.22,4.21,3.33,3.33,0,0,1-1,2.09,2.22,2.22,0,0,1-1.11.51,2.26,2.26,0,0,1-1.32-.38c-2.85-1.69-2.67-1.32-3.23-1.87a6.55,6.55,0,0,1-1.88-3.28,8,8,0,0,1,.39-3.92c.55-2.32.94-3.91,2.25-5.27a7.11,7.11,0,0,0,1.58-1.79,4.68,4.68,0,0,0,.46-2.6,4.53,4.53,0,0,0-.55-1.61c-1.38-2.53-1-2.75-2.68-5.79a37.58,37.58,0,0,0-4.21-6c-3.46-3.94-6.87-5.76-13.6-9.34a24.79,24.79,0,0,0-6.59-2.49,14,14,0,0,0-4.13-.38,15.68,15.68,0,0,0-3.9.83c-1.68.62-4.2,2.08-8.51,8.06a71.16,71.16,0,0,0-5.91,9.85s-2,3.94-4.24,9.49c-.41,1-.67,1.78-1.18,3.26a14.88,14.88,0,0,0-.73,2.44c-.25,1.36-.46,2.54.19,3.43a3.21,3.21,0,0,0,2,1.06,7,7,0,0,0,3.77-.42c1.82-.6,3.66-1.11,5.47-1.75,4.23-1.49,3.27-1,7.42-2.44a19.57,19.57,0,0,1,3.62-1.07,19.21,19.21,0,0,1,4.42-.15,10.21,10.21,0,0,1,3.94.66,6.75,6.75,0,0,1,2.7,2.15,5.55,5.55,0,0,1,1.17,3,5.28,5.28,0,0,1-.32,2.19,4.48,4.48,0,0,1-1.29,1.94,4.66,4.66,0,0,1-2.07.85,7.88,7.88,0,0,1-4.23-.7,53.22,53.22,0,0,1-5.09-2.49,20.09,20.09,0,0,0-3.08-1.45,15.21,15.21,0,0,0-3.83-.7,15.84,15.84,0,0,0-8.55,1.49,17.63,17.63,0,0,0-4.32,2.81,19.51,19.51,0,0,0-4.24,5.36,34.75,34.75,0,0,0-3,7.21c-.61,1.78-.83,2.67-2.43,7.58-.73,2.26-1.25,3.79-2.74,5.08A7.81,7.81,0,0,1,165,175c-4.58,1.21-9.53-4.27-10.55-5.4a21.37,21.37,0,0,1-4.91-17.68c.41-2.93,1-4.1,1.8-4.9a3.27,3.27,0,0,1,1.6-1.08c1.43-.38,2.79.56,3.83,1.32a15.05,15.05,0,0,1,3.55,3.87c2.24,3,3.13,4.49,3.13,4.49,3.07,5,5.8,10.1,6.11,10.74,14.78,30.63-2.77,69-20.07,90.17-4.94,6.05-10.26,12.57-19.53,18.26-15.11,9.27-24.73,6.53-34.47,15.06-5.28,4.63-10.12,17.43-12.51,28.34-.44,2-1.23,6.09-4.59,8.94-3.2,2.7-8.29,4.53-13,2.81-3-1.08-6.75-3.87-6.39-6.39.54-3.71,9.88-5.08,11.75-5.36a31,31,0,0,1,7.4-.25c13.46,1.41,27.07-.36,40.6,0,54.23,1.43,50.64,1.88,58.72,1.53,13.45-.59,13.41-1.41,43.4-3.32,46.16-2.94,12.92,1.11,35.49,0,0,0,8.62-.42,24.26,4.6,1.39.44,4.14,1.4,5.11,3.83a5.22,5.22,0,0,1-.77,5.1c-2,2.41-6.46,1-7.92.51-5.72-1.79-8.56-7-9.44-8.68a24.56,24.56,0,0,1-2.73-12c.2-19,.3-28.43,1.2-32.68,5.25-25,4.45-51,6.8-76.42,3.32-35.85,4.53-60.85,1.88-83.75-1.14-9.8-.83-19.74-2-29.53a79.73,79.73,0,0,1,.77-25.28c.65-3.22,1.88-8.09,5.87-10.47.57-.33,4.14-2.46,6.64-.76a5.07,5.07,0,0,1,1.79,5.1c-.56,2.66-3.9,3.81-6.38,4.6-13.55,4.31-21.2,3.57-21.2,3.57-29.23-2.8-58.73,1.76-88.08,1-31.8-.8-47.72.07-56.94.51C101,66,87,62.66,72.81,62.31c-2.46-.06-9-.17-15.06-4.34-.3-.2-4.87-2.7-6.64-6.89-.67-1.59-.55-2.47-.26-3.07a4.05,4.05,0,0,1,3-1.74c3.37-.66,60.43,1.85,95.83,52,4.46,6.33,20.09,28.48,19.15,47.24a60.08,60.08,0,0,0,.51,13.53c1.42,9.22,4.72,15.88,7.74,21.87,4.17,8.25,6.84,13.53,12.35,18.38,5.9,5.21,11.74,7,17,8.77,16.72,5.67,34.63,11.74,44.34,21,8.91,8.52,10.56,19.41,12.93,36.77"/></svg>