<svg id="레이어_1" data-name="레이어 1" xmlns="http://www.w3.org/2000/svg" viewBox="0 0 572.94 831.83"><defs><style>.cls-1{fill:none;stroke:#000;stroke-miterlimit:10;}</style></defs><path class="cls-1" d="M398,280.41c-23.3,12.5-14.5,9.3-40.1,22.5-3.3,1.7-11.5,5.9-22.6,11.9-9.5,5.1-13,7.1-17.1,9.7-7.2,4.7-10.1,7.3-16.3,11.9-8.4,6.2-14.8,9.9-24.5,15.5-23.5,13.6-30.3,14-53.8,27.8-4,2.4-9.2,5.4-15.4,9.7-11.2,7.7-53.6,36.4-48.6,50.2,5.1,14.1,57.7,6.5,68.7,4a128.84,128.84,0,0,0,25.5-9s.9-.5,1.8-.9c18.9-9.8,35-29.3,35-29.3,17.8-21.6,46-37.3,56.1-42.9,22.2-12.3,39.5-16.5,52.4-36,4.6-6.9,5.6-11.2,4.2-14.3-4.1-9.3-28.7-8.6-45.6-5.2-31.6,6.3-47.8,23.8-59.5,16-2.8-1.9-3.9-4.2-5.9-8.3-9.7-20.1,6.4-36.7-2.7-54a28.21,28.21,0,0,0-9.4-10.3c-19.5-12.6-44,9-54.1-.7-7.7-7.4-3.2-29.4,6-32.9,3.7-1.4,7.6.4,8.5.8,7.4,3.4,9.4,12.7,11,20.2a67.14,67.14,0,0,1-.5,27.7c-.4,1.8-1.3,5.5-5.1,15.3-10.5,27-19.7,39.3-14.6,45.9a5.2,5.2,0,0,0,2.4,2c8.5,3.5,22.4-18.4,52.4-52.7,22-25.2,30-31,33.8-33.6,18.2-12.6,34.2-16.7,33.5-18.6s-14.7-.1-28.2,6.7c-.2.1-.6.3-1.3.6a80.07,80.07,0,0,0-22.9,18.4c-37.1,41.8-40.1,45.7-40.1,45.7-2.9,3.8-8.9,11.7-14.5,10.5-1-.2-2.5-.9-4.7-3.8-7.5-10-7.2-25.1-2.1-35.8.8-1.7,2.6-5.5,3.8-5.2,1.4.3,1.6,6.3-.1,10.3a8.87,8.87,0,0,1-1.4,2.5c-1.1,1.6-2,1.9-3.2,3.5a10.46,10.46,0,0,0-1.3,2.3c-2.5,5.3-.6,10.3-3.4,12.4-1.1.9-2.8,1.1-3.4.5-1.2-1.3,1.6-6.8,2.7-6.5s.6,6.4.2,9.4c-1.7,12.6-8.3,17-8.9,17.2a2,2,0,0,1-1.1,0c-.1,0-.2-.1-.3-.1-.8-.4-.8-7,.6-7.2,1-.2,2.5,2.8,3.1,5,2.3,8.2-3.9,18.2-7,17.8-1.2-.2-2.2-2-2.5-3.2-.2-.8-.4-2.6.4-3.2,1.2-.8,4.6.9,5.8,3.3,2.6,5.4-5.3,15.8-9.3,15a3.09,3.09,0,0,1-2.3-2.8c0-1.7,2.4-3.4,3.5-2.9,1.5.7.8,5.8-.1,9-1.4,4.8-4.8,9.9-6.8,9.4-1.2-.3-1.7-2.6-1.8-3s-.5-2.6.6-3.4,3.8-.1,4.7,1.5c1.5,2.7-2.4,7.5-5.5,9.8-1.3,1-2.8,2-4.2,1.5-1.7-.6-2.9-3.4-1.9-4.6s4-.8,4.8.6c.8,1.2-.2,3.1-.9,4.3-13.2,23.3-33.3,58.6-43.3,54.1-3.5-1.6-4.5-7.3-4.4-11.2.5-22.7,41.4-26.2,97.1-64.5,72.5-49.9,78.6-54.7,78.6-54.7,5.5-4.4,17.4-14.1,33.2-14,16.3.1,24.7,10.6,27.9,7.8,6.2-5.3-10.5-54.8-51.9-76.7-35.6-18.9-86.2-15.5-101.9,8.2-7.2,10.9-10.3,30.9-6.2,33,1.8.9,4.8-1.8,5.3-2.2,0,0,5.5-4.9,4.8-28.6h0l.1,1.1a202,202,0,0,0,1.1-30.1c-.4-12.1-2.2-29.9,2.4-39.9a26.67,26.67,0,0,1,1.3-2.6c3.5-6.1,7.1-7.8,11.2-12.6a40.55,40.55,0,0,0,5-7.9c3-5.7,6.8-15.4,4.5-17a2.92,2.92,0,0,0-3.3.7c-4.1,4.8,12.5,25.8,13.7,27.3,6.6,8.2,9.9,10.2,13,17.4a39.69,39.69,0,0,1,3.2,14c1.8,27,6.8,53.8,6.9,80.8.2,62.7,9.8,106.2,12.6,154,.2,2.9.9,15.3,1.7,27.8.4,5.4.7,8.9,1.1,15.5.1,1.5.3,4.5.6,8.7.2,2.3.3,4.4.5,6.4,1.2,15.1,2.8,31.5,2.8,31.5.5,5.8-.2,11.9,1.6,17.4a8.64,8.64,0,0,1,.4,4.2v.1c-3.3,18.3,2.7,27.8,2.7,27.8,1,1.5,2.5,3.9,3.5,3.6,2-.6,1.6-11-1.1-20.2a16.36,16.36,0,0,0-.7-2.1c-2.5-7.4-10.1-20.5-20-24.7-10.6-4.4-15.2,5-34.1,6.3-21.1,1.5-26.1-9.6-36-5.1-19.3,8.7-15.4,57.3-10.5,74.6,2.8,9.8,9.8,23.4,10.6,24.9a64.43,64.43,0,0,0,5,7.8c4.1,5.4,6.5,8.6,9.4,8.5,3.2-.1,3.9-3.9,10.3-10,4.8-4.6,7.5-7.1,10-6.7,5.1.9,5,13.9,10.3,37.5,4,17.8,6.1,26.8,11.9,33,8.2,8.8,17.5,9.5,17.5,15.2s-9.7,7.7-13.3,19.3c-1.2,3.9-.8,5.7,0,6.8,2.3,3.3,9,2.1,11.3,1.8,17.6-2.2,26.8,16.9,58.1,24,5.7,1.3,14.1,2.6,22.6-1.1,2.5-1.1,7-3.1,9.1-7.3,3.5-7.2-2.3-16.5-6.6-23.8-15-25.2-29.3-54.1-28.6-54.6.3-.2,4.2,3.6,3.2,6-1.2,3.1-9.9,2.4-19.3,1.7-9.6-.8-15.2-1.2-22.5-3.3a70.49,70.49,0,0,0-15.8-3.3s-3-.2-5.9-.1c-16.2.4-35.6,12.3-41.6,20.5a26.88,26.88,0,0,0-4.9,11.2,8,8,0,0,0-.1,1.1c-.8,11,15.3,24.3,15.3,24.3,36.3,30,67.2,42.6,67.2,42.6s31.2,12.7,48.2,8.1c11-3,15.8-9.9,15.8-9.9l.4-.6c5.8-9,2.1-21,1.6-20.9-.7.1,9.6,25.6-1.7,40.9-11.5,15.6-39.4,12.7-53.5,11.2,0,0-54.4-5.7-93.7-53.7a107.18,107.18,0,0,1-9.9-14.3c-4.6-8.1-6.3-13.9-8.5-19.5-4-10-8.1-15.4-16.7-27.8-23.8-34.7-35.8-52.2-36-64.2-.3-12.7,4.6-23.6,9.6-34.8,5.6-12.5,8.6-13.3,10-13.3,4.3.1,7.3,8.1,10.2,16.2,12,33.3,18,57.5,33,72,2.4,2.3,5.9,5.2,9.6,4.6,6.4-1,10.7-11.9,11.8-20.3,2.9-21.4-14.1-28.2-9.8-46.5,1.2-5,2.6-5,8.7-21.9,2.8-7.8,3.9-11.5,4.5-15.9,1-6.9,1.9-12.8-.7-18.8-2.4-5.6-5.3-5.5-14.1-14.9-7-7.5-11.7-12.6-10.5-16.5,1.6-5.2,13-5.9,18.7-6.3,26-1.6,46,9.9,55,15.3,9.9,5.9,15.5,9.3,18.3,16.5a32.7,32.7,0,0,1-2.2,27c-4.1,6.9-11.2,11.6-9.6,16.3a3,3,0,0,0,1.4,1.9c3.6,2.1,12-5.5,11.5-6.4s-9.3,6.5-24.9,10.5c-17.1,4.3-32.2,2.3-36.1-3.2-.6-.8-2.8-3.9-1.7-5.8a3.36,3.36,0,0,1,2-1.3c4.3-1,10.2,9.3,15.9,14.2,13.8,11.9,38.2,1.9,38.6,3.7.6,2.8-58.3,21.1-62.2,12.8a3.05,3.05,0,0,1,0-2.3c1.6-2.8,10.4-.3,22.4,2.6,22.4,5.4,32.8,6.4,39.2,2.5,1-.6,5.3-3.2,4.8-5.1-.3-1.1-2-1.5-2.5-1.6-4.9-1.2-10.7,4.2-14.8,7.9-7.5,6.8-19.9,17.9-30.3,21.6-5.7,2-7.5.7-8.1.2a3.77,3.77,0,0,1-1.1-3c.8-4.8,15.6-6.1,17.1-6.2,16.7-1.4,23.3,4.9,35.6.5,3.2-1.1,7.4-3.2,7.2-4s-6.9-.7-13,1.7c-9.5,3.8-16,12.4-21.3,19.4-4.2,5.6-6.6,9.9-11.5,10.7-2.5.4-6.1,0-6.8-1.7-.5-1.5,1.2-3.4,1.8-4,5-5.5,15.9-4.2,31.3-5,11.3-.6,26-2.5,26-4.4,0-.4-.6-.7-.8-.8-1.7-.8-7.1-1.9-29.9,16.7-13.8,11.2-21.1,19.3-24.3,17.3a3.43,3.43,0,0,1-1.2-3c.4-4.8,11-7.2,29.2-11.4a79.15,79.15,0,0,1,13.8-2,38.75,38.75,0,0,1,5.9-.1c5.7.5,8.7,2.5,11.8,1a5.2,5.2,0,0,0,2.4-2c.2-.2,1.4-2,.9-2.9-.9-1.8-7.6-.1-7.9,0-9.2,2.4-15.4,9.5-21.5,16.7-4.9,5.8-7.4,8.7-9.1,11.9-2.4,4.5-3.3,7.9-6.9,9.6-2.4,1.2-5.9,1.5-7-.1s.3-4.2.8-5.1c4.8-9.4,23.5-12.6,29.6-13.5,14.8-2.2,26.9-.8,27.3-3.4a1.65,1.65,0,0,0-.9-1.5c-1.2-.7-4.8-.9-29.7,24.2-9.3,9.4-15.4,16-19.2,14.3-.6-.3-1.5-.9-1.4-1.5.3-2.5,16.5-4.9,18.2-1.3s-10.5,18.2-26.2,21.6c-27,5.9-57.4-22.4-72.2-45-.3-.5-.7-1-1.1-1.7-4.5-7.2-24.1-38.6-13.9-68.2,2.4-6.9,4.3-12.5,9.8-16.3,12.7-8.8,26.2,4.4,43.7-2.1,15.7-5.8,27-24.6,22.9-33.9-1.9-4.4-7-6-17.3-9.3-18.3-5.9-24.1-2-31.9-8.1-7.5-5.9-12.6-17.6-8.6-25.3a14.85,14.85,0,0,1,11.4-7.6c9.2-.8,22.8,8.7,25.8,8.1a11.49,11.49,0,0,0,4.1-1.7"/></svg>