<svg id="레이어_1" data-name="레이어 1" xmlns="http://www.w3.org/2000/svg" viewBox="0 0 356 358.47"><defs><style>.cls-1{fill:none;stroke:#000;stroke-miterlimit:10;}</style></defs><path class="cls-1" d="M277.85,81.56c-2-2.69-3.81-3.91-7.38-6.33a4.93,4.93,0,0,0-3.3-1.19c-1.28.13-2.51,1-4.61,4.35a44.22,44.22,0,0,0-4.09,8.31c-1.48,3.82-2.21,5.73-3.3,9-.58,1.72-3.83,11.4-4.48,15.64a27.86,27.86,0,0,1-.69,3.6c-.33,1.14-.4,1.09-.66,2.06a13.34,13.34,0,0,0-.53,4.75c.09,1,.18,1.9.79,2.24a1.9,1.9,0,0,0,1.58-.13c.63-.35,1.12-1,1.45-2.77a17.33,17.33,0,0,0,.14-4.49,22,22,0,0,1,1-5.8c1-3.74,1.88-6.11,2.64-8.31,2.94-8.5,1.24-8.14,3.56-13.18,3.62-7.91,4.88-10,4.88-10A10,10,0,0,0,266,76.15c.2-1,.57-2.87-.39-4.35a5.11,5.11,0,0,0-2.38-1.72c-1.88-.93-3.62-2.15-5.53-3-4.85-2.22-4.54-2.55-9.37-4.75-6.17-2.81-11.35-4.4-14-6.46-.23-.18-1.3-1-2.85-2.11-1-.73-1-.66-2.17-1.45-2.87-2-3.37-2.6-4.61-2.64a4.73,4.73,0,0,0-1.58.27,9,9,0,0,0-3,1.58c-1.6,1.32-2.06,3-2.77,4.75-.84,2-2,3.61-4.22,6.72a37.33,37.33,0,0,1-7.25,7.39,44.3,44.3,0,0,1-15.72,8.72,41.4,41.4,0,0,1-40.75-10.34c-.79-.79-8.1-8.16-9.1-13.65A19,19,0,0,0,138.51,50a6,6,0,0,0-2-2.67,5.35,5.35,0,0,0-5.19-.54,5.7,5.7,0,0,0-2.18,1.68,8.6,8.6,0,0,0-1.58,3.26c-.74,3.33,1.36,6.94,2,8.06,5.38,9,8.07,13.5,11.32,16.62,10.29,9.85,22.43,12.9,27.8,13.89,4.89.91,19.74,3.64,33.67-4.25,6-3.39,3-3.73,17.51-16.42A27.33,27.33,0,0,0,227.72,58a7.6,7.6,0,0,0,.3-4.4c-.83-3.1-4-5.29-6.88-5.74-1.31-.2-2.52,0-4.94.55a36.4,36.4,0,0,0-5.49,1.63c-3.88,1.36-6.45,2.27-8.51,2.82-.88.23-3,.75-9.39,1.13-1.47.09-6.88.4-18,.15-8.64-.19-6.48-.39-11-.39-1.56,0-8.78,0-13.3-1.09A12,12,0,0,1,146.3,51l-2.13-1.53c-.59-.4-.88-.61-1.18-.8a26.49,26.49,0,0,0-3.61-2h0a14.77,14.77,0,0,0-3.91-1.09c-4.76-.6-16.91,4.4-16.91,4.4-4.68,1.93-7,2.9-9.49,3.86-4.61,1.79-10.88,4.12-16.27,8a9.77,9.77,0,0,0-3.51,4.05,10,10,0,0,0-.6,5.39c.28,2.17,1,3.16,2.18,5.94A57.14,57.14,0,0,1,95,90c.14.81.36,2.16.52,3.88.83,9.29-1.59,15.13-1.46,20.8a34.18,34.18,0,0,1,.06,5.16,6.44,6.44,0,0,0,0,1.86,2.4,2.4,0,0,0,.35,1.24,1.67,1.67,0,0,0,1.58.64c.59-.13.94-.66,1.24-1.28a10.58,10.58,0,0,0,1.14-4.36c-.05-4.45.9-2.2.94-12A93.68,93.68,0,0,0,99,95.2c-.21-2-1-5.87-2.62-13.5a26,26,0,0,0-3.17-8.8A7.64,7.64,0,0,0,90,69.53a7.73,7.73,0,0,0-5.54-.15,8.93,8.93,0,0,0-3.36,2A166.78,166.78,0,0,0,67.5,85.94l-12.36,13c-3.36,3.54-6.33,7.44-9.6,11.07-1.22,1.37-5.35,5.94-5.63,9.69a14.17,14.17,0,0,0,1,5.3c.15.28.33.55.33.56l.16.23c6.21,8.76,11.18,14.59,11.18,14.59,2.11,2.48,6.11,7,7.61,8.71a53.11,53.11,0,0,1,3.56,4.34h0a52.14,52.14,0,0,0,8.11,8.36,17.32,17.32,0,0,0,3.36,2.32,10.27,10.27,0,0,0,6.78.55c2.27-.67,3.63-2,5.74-4.21a26.09,26.09,0,0,0,2.76-3.36,31.25,31.25,0,0,0,4.46-13,20.44,20.44,0,0,0,.14-2.59,13.44,13.44,0,0,1-.11-2.1,15.17,15.17,0,0,0,.21-2.33h0c0-1.88.57-4.56.15-7.27-.15-1-.36-1.48-.79-1.73a1.74,1.74,0,0,0-1.48,0,2.79,2.79,0,0,0-1.49,1.53,4.13,4.13,0,0,0-.29,2.28c.33,2.53-.22,5.12,0,7.67.34,4-.16,3.63-.1,13.89,0,4.59.14,7.79.19,9.64.36,11.57,0,26-.09,31.7-.78,38.94.22,105.13.09,108.59V305a24.86,24.86,0,0,0,.27,2.71c.4,2.56.6,3.84,1.35,4.74a4.28,4.28,0,0,0,2.7,1.58,2.09,2.09,0,0,0,.5,0c4.52-.37,9.07,0,13.61,0s22.65-.07,36.6,0c19.38.11,17.11.38,33.69.46,36.81.2,32.52-1.13,38.34-.1,1,.18,10.81.3,30.46.53a6.4,6.4,0,0,0,3.83-1,6.72,6.72,0,0,0,2.24-3.3,9.79,9.79,0,0,0,.39-4.62c-.59-4,1.09-6.58.79-31.12-.16-13.32-.78-23.45-1.18-29.8-.45-7.15-.94-12.86-1.32-17.4-1.5-17.69-1.92-17-2.38-24.93a234.06,234.06,0,0,1,.27-31.78c.54-6.77,1.27-11.69,1-19.51-.2-7.46-1-7.63-.39-11.61.47-3.13,1.41-6.08-.27-8.44-.64-.9-1.88-2-2.77-1.71-.37.12-.8.54-1.18,2.63a19.62,19.62,0,0,0-.27,5.41c1,8.93.79,8.47,1.19,10.55a36.23,36.23,0,0,0,1.45,6.07,23.22,23.22,0,0,0,5.94,8.7c2.48,2.21,6.05,3.32,13.18,5.54a5.66,5.66,0,0,0,3.43.13,4.86,4.86,0,0,0,1.45-.79c6.06-4.69,10.38-7.05,13.19-12.66h0a22.21,22.21,0,0,1,6.43-7.62c1.56-1.24,5.62-5.71,13.74-14.67,7.36-8.1,3.26-5.12,4.49-6.33.17-.17.74-.71.66-1.31s-.8-1-.93-1.06c-2.13-1.2-14.83-18.16-17.27-21.36A189.43,189.43,0,0,0,274.1,80.4"/></svg>