<?xml version="1.0" encoding="utf-8"?>
<!-- Generator: Adobe Illustrator 25.1.0, SVG Export Plug-In . SVG Version: 6.00 Build 0)  -->
<svg version="1.1" id="레이어_1" xmlns="http://www.w3.org/2000/svg" xmlns:xlink="http://www.w3.org/1999/xlink" x="0px"
	 y="0px" viewBox="0 0 1920 1280" style="enable-background:new 0 0 1920 1280;" xml:space="preserve">
<style type="text/css">
	.st0{fill:none;stroke:#000000;stroke-miterlimit:10;}
</style>
<path class="st0" d="M0,258.8c37.1,13.2,92.4,28.5,160,30.5c170.5,5.1,233-79.8,334-35.9c79.3,34.4,120.3,121.3,124.6,142
	c1.2,5.7,0.9,12.7,4.1,30.1c1.9,10.2,4.4,20.8,0,32.6c-0.1,0.4-0.3,0.8-0.5,1.4c-4.9,11.5-15.3,17-21.8,20.4
	c-23.3,12.5-14.5,9.3-40.1,22.5c-3.3,1.7-11.5,5.9-22.6,11.9c-9.5,5.1-13,7.1-17.1,9.7c-7.2,4.7-10.1,7.3-16.3,11.9
	c-8.4,6.2-14.8,9.9-24.5,15.5c-23.5,13.6-30.3,14-53.8,27.8c-4,2.4-9.2,5.4-15.4,9.7c-11.2,7.7-53.6,36.4-48.6,50.2
	c5.1,14.1,57.7,6.5,68.7,4c8.8-2.1,17.3-5.1,25.5-9c0,0,0.9-0.5,1.8-0.9c18.9-9.8,35-29.3,35-29.3c17.8-21.6,46-37.3,56.1-42.9
	c22.2-12.3,39.5-16.5,52.4-36c4.6-6.9,5.6-11.2,4.2-14.3c-4.1-9.3-28.7-8.6-45.6-5.2c-31.6,6.3-47.8,23.8-59.5,16
	c-2.8-1.9-3.9-4.2-5.9-8.3c-9.7-20.1,6.4-36.7-2.7-54c-2.2-4.2-5.5-7.7-9.4-10.3c-19.5-12.6-44,9-54.1-0.7c-7.7-7.4-3.2-29.4,6-32.9
	c3.7-1.4,7.6,0.4,8.5,0.8c7.4,3.4,9.4,12.7,11,20.2c0.6,3,2.6,13.5-0.5,27.7c-0.4,1.8-1.3,5.5-5.1,15.3
	c-10.5,27-19.7,39.3-14.6,45.9c0.6,0.9,1.4,1.6,2.4,2c8.5,3.5,22.4-18.4,52.4-52.7c22-25.2,30-31,33.8-33.6
	c18.2-12.6,34.2-16.7,33.5-18.6c-0.6-1.8-14.7-0.1-28.2,6.7c-0.2,0.1-0.6,0.3-1.3,0.6c-8.7,4.7-16.5,10.9-22.9,18.4
	c-37.1,41.8-40.1,45.7-40.1,45.7c-2.9,3.8-8.9,11.7-14.5,10.5c-1-0.2-2.5-0.9-4.7-3.8c-7.5-10-7.2-25.1-2.1-35.8
	c0.8-1.7,2.6-5.5,3.8-5.2c1.4,0.3,1.6,6.3-0.1,10.3c-0.3,0.9-0.8,1.7-1.4,2.5c-1.1,1.6-2,1.9-3.2,3.5c-0.5,0.7-1,1.5-1.3,2.3
	c-2.5,5.3-0.6,10.3-3.4,12.4c-1.1,0.9-2.8,1.1-3.4,0.5c-1.2-1.3,1.6-6.8,2.7-6.5s0.6,6.4,0.2,9.4c-1.7,12.6-8.3,17-8.9,17.2
	c-0.4,0.1-0.8,0.1-1.1,0c-0.1,0-0.2-0.1-0.3-0.1c-0.8-0.4-0.8-7,0.6-7.2c1-0.2,2.5,2.8,3.1,5c2.3,8.2-3.9,18.2-7,17.8
	c-1.2-0.2-2.2-2-2.5-3.2c-0.2-0.8-0.4-2.6,0.4-3.2c1.2-0.8,4.6,0.9,5.8,3.3c2.6,5.4-5.3,15.8-9.3,15c-1.3-0.3-2.2-1.5-2.3-2.8
	c0-1.7,2.4-3.4,3.5-2.9c1.5,0.7,0.8,5.8-0.1,9c-1.4,4.8-4.8,9.9-6.8,9.4c-1.2-0.3-1.7-2.6-1.8-3s-0.5-2.6,0.6-3.4s3.8-0.1,4.7,1.5
	c1.5,2.7-2.4,7.5-5.5,9.8c-1.3,1-2.8,2-4.2,1.5c-1.7-0.6-2.9-3.4-1.9-4.6s4-0.8,4.8,0.6c0.8,1.2-0.2,3.1-0.9,4.3
	c-13.2,23.3-33.3,58.6-43.3,54.1c-3.5-1.6-4.5-7.3-4.4-11.2c0.5-22.7,41.4-26.2,97.1-64.5c72.5-49.9,78.6-54.7,78.6-54.7
	c5.5-4.4,17.4-14.1,33.2-14c16.3,0.1,24.7,10.6,27.9,7.8c6.2-5.3-10.5-54.8-51.9-76.7c-35.6-18.9-86.2-15.5-101.9,8.2
	c-7.2,10.9-10.3,30.9-6.2,33c1.8,0.9,4.8-1.8,5.3-2.2c0,0,5.5-4.9,4.8-28.6l0,0c0,0,0.1,1.1,0.1,1.1c1.1-10,1.5-20.1,1.1-30.1
	c-0.4-12.1-2.2-29.9,2.4-39.9c0.6-1.4,1.3-2.6,1.3-2.6c3.5-6.1,7.1-7.8,11.2-12.6c2-2.4,3.6-5.1,5-7.9c3-5.7,6.8-15.4,4.5-17
	c-1.1-0.5-2.5-0.2-3.3,0.7c-4.1,4.8,12.5,25.8,13.7,27.3c6.6,8.2,9.9,10.2,13,17.4c1.9,4.4,3,9.2,3.2,14c1.8,27,6.8,53.8,6.9,80.8
	c0.2,62.7,9.8,106.2,12.6,154c0.2,2.9,0.9,15.3,1.7,27.8c0.4,5.4,0.7,8.9,1.1,15.5c0.1,1.5,0.3,4.5,0.6,8.7c0.2,2.3,0.3,4.4,0.5,6.4
	c1.2,15.1,2.8,31.5,2.8,31.5c0.5,5.8-0.2,11.9,1.6,17.4c0.5,1.4,0.6,2.8,0.4,4.2c0,0.1,0,0.1,0,0.1c-3.3,18.3,2.7,27.8,2.7,27.8
	c1,1.5,2.5,3.9,3.5,3.6c2-0.6,1.6-11-1.1-20.2c-0.1-0.3-0.3-1.2-0.7-2.1c-2.5-7.4-10.1-20.5-20-24.7c-10.6-4.4-15.2,5-34.1,6.3
	c-21.1,1.5-26.1-9.6-36-5.1c-19.3,8.7-15.4,57.3-10.5,74.6c2.8,9.8,9.8,23.4,10.6,24.9c1.5,2.7,3.1,5.3,5,7.8
	c4.1,5.4,6.5,8.6,9.4,8.5c3.2-0.1,3.9-3.9,10.3-10c4.8-4.6,7.5-7.1,10-6.7c5.1,0.9,5,13.9,10.3,37.5c4,17.8,6.1,26.8,11.9,33
	c8.2,8.8,17.5,9.5,17.5,15.2s-9.7,7.7-13.3,19.3c-1.2,3.9-0.8,5.7,0,6.8c2.3,3.3,9,2.1,11.3,1.8c17.6-2.2,26.8,16.9,58.1,24
	c5.7,1.3,14.1,2.6,22.6-1.1c2.5-1.1,7-3.1,9.1-7.3c3.5-7.2-2.3-16.5-6.6-23.8c-15-25.2-29.3-54.1-28.6-54.6c0.3-0.2,4.2,3.6,3.2,6
	c-1.2,3.1-9.9,2.4-19.3,1.7c-9.6-0.8-15.2-1.2-22.5-3.3c-5.1-1.7-10.4-2.8-15.8-3.3c0,0-3-0.2-5.9-0.1
	c-16.2,0.4-35.6,12.3-41.6,20.5c-2.5,3.3-4.1,7.1-4.9,11.2c0,0-0.1,0.6-0.1,1.1c-0.8,11,15.3,24.3,15.3,24.3
	c36.3,30,67.2,42.6,67.2,42.6s31.2,12.7,48.2,8.1c11-3,15.8-9.9,15.8-9.9l0.4-0.6c5.8-9,2.1-21,1.6-20.9c-0.7,0.1,9.6,25.6-1.7,40.9
	c-11.5,15.6-39.4,12.7-53.5,11.2c0,0-54.4-5.7-93.7-53.7c-3.7-4.5-7-9.3-9.9-14.3c-4.6-8.1-6.3-13.9-8.5-19.5
	c-4-10-8.1-15.4-16.7-27.8c-23.8-34.7-35.8-52.2-36-64.2c-0.3-12.7,4.6-23.6,9.6-34.8c5.6-12.5,8.6-13.3,10-13.3
	c4.3,0.1,7.3,8.1,10.2,16.2c12,33.3,18,57.5,33,72c2.4,2.3,5.9,5.2,9.6,4.6c6.4-1,10.7-11.9,11.8-20.3c2.9-21.4-14.1-28.2-9.8-46.5
	c1.2-5,2.6-5,8.7-21.9c2.8-7.8,3.9-11.5,4.5-15.9c1-6.9,1.9-12.8-0.7-18.8c-2.4-5.6-5.3-5.5-14.1-14.9c-7-7.5-11.7-12.6-10.5-16.5
	c1.6-5.2,13-5.9,18.7-6.3c26-1.6,46,9.9,55,15.3c9.9,5.9,15.5,9.3,18.3,16.5c3.2,8.9,2.4,18.8-2.2,27c-4.1,6.9-11.2,11.6-9.6,16.3
	c0.2,0.8,0.7,1.5,1.4,1.9c3.6,2.1,12-5.5,11.5-6.4S535.6,752,520,756c-17.1,4.3-32.2,2.3-36.1-3.2c-0.6-0.8-2.8-3.9-1.7-5.8
	c0.5-0.7,1.2-1.1,2-1.3c4.3-1,10.2,9.3,15.9,14.2c13.8,11.9,38.2,1.9,38.6,3.7c0.6,2.8-58.3,21.1-62.2,12.8c-0.3-0.7-0.3-1.6,0-2.3
	c1.6-2.8,10.4-0.3,22.4,2.6c22.4,5.4,32.8,6.4,39.2,2.5c1-0.6,5.3-3.2,4.8-5.1c-0.3-1.1-2-1.5-2.5-1.6c-4.9-1.2-10.7,4.2-14.8,7.9
	c-7.5,6.8-19.9,17.9-30.3,21.6c-5.7,2-7.5,0.7-8.1,0.2c-0.8-0.8-1.2-1.9-1.1-3c0.8-4.8,15.6-6.1,17.1-6.2
	c16.7-1.4,23.3,4.9,35.6,0.5c3.2-1.1,7.4-3.2,7.2-4s-6.9-0.7-13,1.7c-9.5,3.8-16,12.4-21.3,19.4c-4.2,5.6-6.6,9.9-11.5,10.7
	c-2.5,0.4-6.1,0-6.8-1.7c-0.5-1.5,1.2-3.4,1.8-4c5-5.5,15.9-4.2,31.3-5c11.3-0.6,26-2.5,26-4.4c0-0.4-0.6-0.7-0.8-0.8
	c-1.7-0.8-7.1-1.9-29.9,16.7c-13.8,11.2-21.1,19.3-24.3,17.3c-0.9-0.7-1.3-1.9-1.2-3c0.4-4.8,11-7.2,29.2-11.4
	c4.5-1.1,9.1-1.7,13.8-2c2-0.2,3.9-0.2,5.9-0.1c5.7,0.5,8.7,2.5,11.8,1c1-0.4,1.8-1.1,2.4-2c0.2-0.2,1.4-2,0.9-2.9
	c-0.9-1.8-7.6-0.1-7.9,0c-9.2,2.4-15.4,9.5-21.5,16.7c-4.9,5.8-7.4,8.7-9.1,11.9c-2.4,4.5-3.3,7.9-6.9,9.6c-2.4,1.2-5.9,1.5-7-0.1
	s0.3-4.2,0.8-5.1c4.8-9.4,23.5-12.6,29.6-13.5c14.8-2.2,26.9-0.8,27.3-3.4c0-0.6-0.3-1.2-0.9-1.5c-1.2-0.7-4.8-0.9-29.7,24.2
	c-9.3,9.4-15.4,16-19.2,14.3c-0.6-0.3-1.5-0.9-1.4-1.5c0.3-2.5,16.5-4.9,18.2-1.3c1.8,3.7-10.5,18.2-26.2,21.6
	c-27,5.9-57.4-22.4-72.2-45c-0.3-0.5-0.7-1-1.1-1.7c-4.5-7.2-24.1-38.6-13.9-68.2c2.4-6.9,4.3-12.5,9.8-16.3
	c12.7-8.8,26.2,4.4,43.7-2.1c15.7-5.8,27-24.6,22.9-33.9c-1.9-4.4-7-6-17.3-9.3c-18.3-5.9-24.1-2-31.9-8.1
	c-7.5-5.9-12.6-17.6-8.6-25.3c2.3-4.2,6.6-7.1,11.4-7.6c9.2-0.8,22.8,8.7,25.8,8.1c1.5-0.3,2.9-0.9,4.1-1.7
	c4.9-3.3,12.5-18.9,12.5-18.9c6.4-13.1,43.5-8.2,46-7.9c56.8,7.8,106.2,14.6,149.7,55.7c21.2,20,45.1,42.6,57.4,77.1
	c3.2,8.9,7.2,23.1,20.1,34.4c14.3,12.5,32,15,43.7,15.8c73.3,5,110.1-42.5,165-26.4c32,9.4,56.5,36.3,55.9,49.3
	c-0.1,3.2-1.2,6.3-3.1,8.9c-4.9,6-14.8,6.6-21.2,4.6c-10.8-3.3-15.2-15.1-19.7-24c-10.2-20.5-32.6-50.9-52.6-53.4
	c-21.2-2.7-48.2,25-54.9,53.6c-12.7,54.4,47.2,116.8,97.9,123.8c9.1,1.3,31.2,4.3,50.6-7.4c9.1-5.5,17.2-12.5,24-20.7
	c4.5-5.8,7.7-11.8,15.6-18.4c3.9-3.2,8-5.9,12.5-8.2c15-7.9,37.8-15,49.7-16.7c36.3-5,114.4,21.2,190.2,78.4
	c16.8,12.7,30.9,24.9,49.7,22.9c25.9-2.8,54.6-31.8,49.3-58.3c-6.5-32.9-60.6-37-66.5-37.4c-6.7-0.4-26.9-1.5-47.7,10.6
	c-11.2,6.6-20.7,15.7-27.7,26.6c-23.5,35-17.8,79.3-15.6,96.2c13.2,102.2-299.9-71.5-299.9,240"/>
</svg>
