<svg id="레이어_1" data-name="레이어 1" xmlns="http://www.w3.org/2000/svg" viewBox="0 0 1920 1080"><defs><style>.cls-1{fill:none;stroke:#fff;stroke-miterlimit:10;}</style></defs><path class="cls-1" d="M0,871.64c78.81,13.4,139,10.6,180.43,5.1,22.14-2.93,38.8-6.62,71.74-8.68,57.65-3.6,114.55.93,121.79,1.53,57.57,4.77,12.6.75,54.64,3.41,14.28.9,32.28,2,54.46-2.39,8.06-1.61,17-4,26.22-10.21,5.83-3.92,15.54-10.45,17.7-21.1,1-4.9-.64-5.6.34-14.3.87-7.82,2.34-8.58,3.74-17,1.38-8.25.1-8.22,1.37-19.07.88-7.55,1.54-7.94,2.72-17.7,1.2-9.94.94-13.14,0-16.34s-2.33-7.87-6.47-10.21c-1.51-.86-3.76-1.6-16,.68-7.78,1.45-8.19,2-14.3,3.06a116.17,116.17,0,0,1-17,1.7A56.09,56.09,0,0,1,466,748.74a20.84,20.84,0,0,1-6.13-2.38,20.59,20.59,0,0,1-6.12-5.79c-7.08-9.67-12.42-22.56-12.94-23.83-2.07-5-2.76-7.35-5.11-11.91a94.06,94.06,0,0,0-5.44-9.19c-2.54-3.92-3.84-5.91-5.45-7.15-1.84-1.43-4.18-2.21-8.85-3.75-3.72-1.23-4-1.08-8.17-2.38-6.46-2-9.33-3.47-9.53-3.06s2,2,2.38,1.7c.57-.47-3.21-3.79-3.4-8.51-.21-4.94,3.62-8.73,4.42-9.54a17.65,17.65,0,0,1,7.15-4.08,18.47,18.47,0,0,1,8.51-1.36c1.62.18,4.8.83,9.87,5.1,4.28,3.61,6,6.51,10.22,12.26,2.22,3,6.78,9.3,11.57,14.64,4.35,4.84,7.85,7.77,13.62,12.59,8.19,6.86,13.2,11,21.1,15a45.58,45.58,0,0,0,17.37,5.11,22,22,0,0,0,11.23-2c1.87-.94,3.22-1.62,3.75-3.07.69-1.94-.08-5.31.34-7.49a5.65,5.65,0,0,1,.14-.6,6.41,6.41,0,0,1,1.29-2.27l1.63-2.91c1.93-3.46,2.26-4.41,2.72-5.11,2.17-3.27,8.46-2.87,11.58-2.72,7.37.35,14.75-.39,22.12-.34a152.8,152.8,0,0,0,24.86-1.37,142,142,0,0,0,17-3.74c10.64-2.82,16.66-4.42,24.17-8.17,4.87-2.43,6.59-3.89,12.25-6.13a64.41,64.41,0,0,1,12.6-3.74c5.16-.93,9.57-.73,18.38-.34,7.58.33,11.45.93,18.92.88,3.09,0,2.18-.12,6.95-.2l8.75-.73a8.13,8.13,0,0,0,2-.51c1.12-.41,1.33-.72,1.4-1a1.41,1.41,0,0,0-.19-1,2.26,2.26,0,0,0-1-.89c-1.4-.74-1.3-1.29-3.89-2.74a48.07,48.07,0,0,0-5-2.17c-3.11-1.39-3.26-1.81-5.49-2.75a30.35,30.35,0,0,0-6.13-1.79c-8.9-1.85-9.23-3-15-3.89a53.8,53.8,0,0,0-14.93.13c-7.83.87-11.75,1.3-14.3,3.51a32.71,32.71,0,0,1-5.87,3.76,11,11,0,0,1-2.3.77,2,2,0,0,1-1.28,0c-.15,0-.59-.22-.7-.57s.29-.82.64-1.28c0,0,0,0,1.15-2.3,5.52-11.06,6.32-29.55,6.32-29.55.37-8.58.55-12.87-.9-18.51-1.09-4.25-2.93-11-8.93-17a33,33,0,0,0-14.56-8.17c-4.27-1.26-12-3.56-20.17-.26-9.3,3.79-13.22,12.55-14.81,16.09-7.7,17.22,1.11,34.25,2.05,36,5.55,10.33,15.35,17.1,16.08,17.36a1.78,1.78,0,0,1,.74.48,2,2,0,0,1,.44,1.08,11.54,11.54,0,0,1-.28,5.94,11,11,0,0,1-1.7,3.22c-2.14,2.78-5.27,3.62-7.75,4.28a21.13,21.13,0,0,1-6.22.67h-.12c-8.69-.42-35.84-2.27-52.6-.17h0c-6.09.76-10.9,1.36-15.15-.68a8.24,8.24,0,0,1-3.91-3.41,7.06,7.06,0,0,1-.77-2.89c-.31-5.24,4-14.61,6.64-20.68a57.15,57.15,0,0,0,3.58-10.55,35.41,35.41,0,0,0,.51-8.17c-.09-1.87-.14-2.8-.51-2.94-1.51-.55-3.87,9.34-12.51,15.7a34.7,34.7,0,0,1-8.56,4.47,40,40,0,0,1-8.42,1.92,66.83,66.83,0,0,1-16.22-.13c-8.52-1-12.78-1.43-16.72-4.09a20.68,20.68,0,0,1-7.53-8.81c-3.55-8.22.09-16.49,1.66-20,5.94-13.48,18.89-18.79,22.72-20.17,5.06-1.82,16.61-6,26.17.13,6.66,4.25,8.91,11.29,9.83,14.17,3.4,10.61,0,20-2,25.4-1.34,3.65-7.35,18.7-23.49,27.71a48.93,48.93,0,0,1-22.09,6.38c-3.54.12-7-.39-13.91-1.41-9-1.31-10.43-2.33-11.36-3.44-3-3.55-1.65-9.19-.64-13.41,1.46-6.14,4.74-11.69,5.74-11.36s.76,7.19-1,13.15c-.56,1.89-1,2.65-.64,3.83,1,3.48,6.8,5,10.09,5.87a17.8,17.8,0,0,0,4.08.79c2.33.1,3.7-.43,5.83.3a8,8,0,0,1,1.71.83c4.08,2.51,4.88,7.39,5,8a6.32,6.32,0,0,1-.26,4c-.95,1.93-3,2.66-4.21,3.06-3.18,1.07-5.21.33-9.45.13a59.82,59.82,0,0,0-8,.38c-1.54.16-6.08.75-15.07,5.49-10.81,5.7-18.64,9.84-21.31,18.13a19.23,19.23,0,0,0-.9,6.25c0,28.21,2.94,64.47,2.94,64.47,2.33,28.52,3.5,42.78.25,50.17-2.3,5.25-7.51,14.46-4.34,23.49,1.81,5.15,6.21,9.88,6.77,10.47a37,37,0,0,0,9.57,7.15,51.08,51.08,0,0,0,13.79,5.11c42.42,9.41,69.57,4.85,69.57,4.85,6.79-1.14,21-6.68,49.54-17.75a12.16,12.16,0,0,0,3.83-2.3c3.12-2.8,3.92-6.65,4.85-11.49,1.55-8.08,2.33-12.12,2.42-13.27.6-7.51,4.4-50.3,5.88-61.79a25.71,25.71,0,0,0-.9-10.85,17.35,17.35,0,0,0-3.06-5.87,18.71,18.71,0,0,0-3.83-3.45c-3-2.21-4.52-3.34-6-2.94-2.21.61-2.95,4.29-3.19,5.49-1.21,6,1.23,11.28,1.91,12.77,3.68,8.09,4.89,17.09,7.66,25.53,5.85,17.82,6.74,21.29,7.53,25.79a134.48,134.48,0,0,1,1.71,15.32c.44,8.1.66,12.16-.17,15.32-.73,2.74-1.82,5.16-1.54,9a19.71,19.71,0,0,0,1.54,6.13,22.17,22.17,0,0,0,6.46,8.34c12.15,10.16,36.6,14,36.6,14a108.78,108.78,0,0,0,35.23.17s11.5-1.94,20.6-9.36a10,10,0,0,0,3.23-4.25,11,11,0,0,0,0-7c-2.07-7.2,1.21-28.93.51-67.58-.58-32.56-3.29-38,1.88-51.06,5.36-13.59,13.32-20.47,15.31-22.13,12.4-10.29,26.58-11.47,30.47-11.74,15.59-1.09,19,5.41,41.19,4.93,6.29-.13,10.8-.26,16.52-2.21,8-2.71,9.52-6,20.76-11.06,6.53-3,9.79-4.45,14.64-4.94,7-.71,14.85.83,17.53,1.36,5.46,1.08,10,2.58,13.45.34A5.39,5.39,0,0,0,849,690.7a5.53,5.53,0,0,0-1.19-4.09c-2.33-3.39-16.77-16.43-35.23-12.93-3.94.75-8.53,2.43-17.71,5.79-1.22.44-4,1.48-9.53,3.57-10.91,4.11-11.39,4.32-13.1,4.77a64,64,0,0,1-14.3,1.87c-3.57.14-3.46-.1-13.45-.51-11.85-.49-13-.2-17.36-1-2.74-.52-5.17-1.2-10-2.56-7-2-8.28-2.66-11.58-2.89-2.54-.18-6.92-.48-10.55,1.53-5.28,2.93-6.85,9.59-7.66,14-3.76,20.22.76,34.52.17,56a166.65,166.65,0,0,1-3.23,27.23c-4.39,23.84-11.92,41.88-7.15,44.26h0c7,3.51.4,30.82.85,39.15a4.64,4.64,0,0,0,1,2.89c1.16,1.33,3,1.46,4.25,1.53,8.56.5,9.42.19,12.26.68a24,24,0,0,1,7.15,2.05c1.64.8,2.39,1.45,4.08,1.7.41.06,3.93.53,5.28-1.36a7.67,7.67,0,0,0,.85-2.73c.19-.89.19-1.24.46-2.29.2-.82.31-1,.53-1.81a24.28,24.28,0,0,0,.54-2.54c.44-2.64.73-9.75.85-11.74a56.35,56.35,0,0,1,2-11.23c.24-1,1.2-4.75,2.89-9.54,1-2.77,1.39-3.59,2.21-6.29a28.29,28.29,0,0,0,1.53-7.83,10.9,10.9,0,0,0-.51-4.6,11,11,0,0,0-2.89-4.08c-2.43-2.31-3.76-2.11-6-3.75-2.6-1.93-3.71-4.42-4.93-7.15a28.92,28.92,0,0,1-2.39-10.21c-.91-13.52-1.43-21.18.86-32.17a96.78,96.78,0,0,1,5.78-18c2.7-6.28,4.77-11,9.19-15.49,2.49-2.54,4.51-3.78,11.24-7.66,20.92-12.06,23.24-12.65,25.19-16.51,1.1-2.19,1-7.59.85-18.39-.13-8.23-.61-10.44-.85-20.59-.22-9.19-.32-13.85.51-17a35.8,35.8,0,0,1,11.06-17.53c1.89-1.63,13.56-11.71,26.56-8.52,8.4,2.07,12.65,8.54,19.91,19.58,5.2,7.9,12.82,19.5,12.6,35.57-.06,4.33-.15,10.88-3.75,18-4.46,8.89-13.43,17-23.49,20.76-2.34.88-4.67,1.5-4.59,2,.18,1.25,12.6-.11,30.64.52,17.25.59,20.62,2.35,23,4.25a39,39,0,0,1,10.39,14.3,34.51,34.51,0,0,0,5.61,9.87c2,2.35,3.56,3.48,5.45,3.92,1.14.26,2.78.35,5.62-.69a23.59,23.59,0,0,0,8.68-5.61c5.34-5.56,9-4.54,28.6-17,14.68-9.37,16.85-12.66,18-15,3-5.81,4.74-9.24,4.76-14a20.28,20.28,0,0,1,1.71-9c1.23-2.65,2.27-3.12,2.55-3.24,2.14-.87,4.14,1.2,8.51,3.75,7.56,4.41,10.61,3.49,12.08,6.81a7.35,7.35,0,0,1-.51,7c-1,1.37-3.18,2.54-6.63,4.42h0a47,47,0,0,0-9,6.81c-3.91,4-5.64,10.33-6.46,12.94-1.91,6-6.89,12.24-16.85,24.68C914.29,758,909,764.4,900.26,768.83c-4.24,2.13-10.39,5.12-17.2,3.4-4.57-1.15-8-4.07-11.4-7-6.1-5.2-6.59-8.3-11.92-10.72-1.75-.8-5.24-2.39-9-1.53-4.79,1.08-7.93,5.61-10.55,11.23-3.32,7.11-7.19,18.95-6.81,46.3.23,16.05.34,24.08.51,25.87.58,6,1.53,12.25-1.19,19.58-2.27,6.11-5.46,8.49-6.81,9.36a16,16,0,0,1-7.83,2.38c-18.19,1.12-48.85,3.46-48.85,3.41s105.21,12.8,108.94-3.58c.54-2.38-1.46-3.61-4.26-8.68-12.68-23-2-52.93.51-52.77,2.84.19-5.87,38.38,13.79,53.28,7.18,5.44,18,7.7,21.11,8.34,6,1.24,6.89.58,23.49.85,20.62.35,27.45,1.51,33.53-3.57a15.41,15.41,0,0,0,4.93-6.64c2.06-5.71,0-12.37-.68-14.47,0,0,0,0,0,0-3.75-12-4.76-26.55-4.76-26.55-.47-6.67-.2-12,.34-22.64.18-3.57.64-11.44,4.08-15.83a22.37,22.37,0,0,1,6.81-5.28c.63-.24,1.1-.37,1.1-.37A6.15,6.15,0,0,0,979,773c0-.36-10.47-2.06-10.47-2a47.41,47.41,0,0,0,20.43,1.54c5.17-.81,13.7-2.15,18-9.28s1.64-14.87,1.28-15.91c-3.55-10.14-14.36-13.4-16.77-14.13-9-2.71-16.31,0-27.92,4.25-8.76,3.23-18.77,6.91-20.08,14.05-.9,4.91,2.84,8.65,2,9.27-1.48,1-13.59-8.36-18.56-22.89-1-2.87-1.73-9-3.23-21.28-1.21-9.9-1.82-14.86-1.45-17.53a46,46,0,0,0,.09-11.4c-.28-2.38-.71-4.36-2.3-5.88a6.31,6.31,0,0,0-5-1.78,6.12,6.12,0,0,0-3.24,1.78,11.8,11.8,0,0,0-2.89,5c-.23.91-.21,1.36-.51,1.45-.6.19-1.53-1.44-3.83-4.93a24.75,24.75,0,0,0-2.72-3.83c-2.68-1.86-7.43-.75-10.39,1.7a11.61,11.61,0,0,0-3.83,6.89c-.89,5.34,2.09,9.65,4.52,13.7,2.11,3.52,4.83,10,10.29,22.81,4.54,10.68,3.18,10.48,8.17,22.9,3.66,9.07,5.94,14.75,10.3,21.53,6.54,10.16,11.84,18.41,21.28,20.08A24,24,0,0,0,960,784.83c2.57-2,2.49-2.9,4.77-4.94,5.47-4.91,15.91-8.35,23.66-4.76,12.51,5.78,12.17,27.18,12.1,31.5,0,.33,0,.53,0,.92-.32,10.53-2.18,16.13-5.74,33.06h0a58.8,58.8,0,0,0-1.28,11.61c-.06,5.95-.08,8.93,1.4,11.87a14.32,14.32,0,0,0,4.09,5,14.67,14.67,0,0,0,7.4,2.68c10.21,1.12,22.38,1.6,29.62,2.43,6.63.76,4.28,1.25,17.74,3.57a150.06,150.06,0,0,0,21.32,2.3,55.13,55.13,0,0,0,16.34-2.3c2.12-.67,4.92-1.76,6.26-4.34a9.53,9.53,0,0,0,.89-3.57,18.52,18.52,0,0,0-.51-6.77,94.28,94.28,0,0,0-3.06-10.85c-5-12.2-1.82-38.66,0-54,.81-6.82,2-13.54,2-13.54.6-3.34.54-2.57,1-5.48,1.64-9.3,1.22-11.21,3.19-13.53.32-.37,2.73-3.12,6.13-3.19,2.55-.06,4.42,1.41,8.43,5,5,4.5,7.35,6.87,9.06,8.42,2.41,2.18,3.38,2.48,14.68,8.43,14.75,7.75,16.32,8.94,20.43,9.06,1.92.06,7.6.15,12.51-3.45,1.36-1,3.33-2.77,8-13.53s4-12,7.66-18.13c1.23-2.09,3-4.67,6.51-9.83a79.21,79.21,0,0,1,5.75-7.91c4-4.28,5.58-3.54,11.23-8.17a37.38,37.38,0,0,0,9.7-11,24.52,24.52,0,0,0,3.45-10.34,23.58,23.58,0,0,0-.51-7c-.53-2.31-.85-3.73-1.92-5.24-1.27-1.78-3.67-2.87-8.42-5-3.69-1.63-4.25-1.6-4.73-1.41-3.06,1.24-2.81,9.19-2.76,9.19s2.58-8.56-.68-11.4c-1.31-1.14-2.62-.54-10.56.34-8.78,1-12.43.82-15.66-1.19a6.09,6.09,0,0,1-2.21-1.87c-2.46-3.85,1.93-9.84,5.28-17,3.1-6.66,4.19-12,5.62-18.89,2.29-11.19,4.24-20.66-1-28.08-4.31-6.09-11.33-7.79-13.61-8.34-11.91-2.89-22.17,3.55-28.43,7.48-6.08,3.82-16.92,10.63-20.76,24.17-.64,2.24-3.85,13.56,1.7,24,2.06,3.89,4.84,9.11,10.55,11.92,2.81,1.38,5.7,1.88,6.47,4.25.69,2.16-.78,4.57-2,6.64a19.44,19.44,0,0,1-4.77,5.28c-1.14.86-4.61,3.29-13.11,4.6-3.8.58-7.3.55-14.29.51-10.75-.08-5.7-.78-15.15-1a14.37,14.37,0,0,1-8.51-2.38c-.43-.31-2.56-1.85-2.22-2.89s3.38-.41,6.81-1.19c3.84-.88,8.66-3.79,10.39-8.51,1.52-4.17,0-8.06-1.2-11.24-1-2.49-1.92-5-4.59-6.64-.49-.29-4-2.36-7.15-1-2.62,1.11-2.33,3.43-6,8a21.54,21.54,0,0,1-5.45,5.28c-3.83,2.39-7.77,2.41-11.4,2.38-5.14,0-8.84-1.21-14.13-2.89a80.15,80.15,0,0,1-11.4-4.6c-6.92-3.43-10.38-5.15-13.11-8.34a23.37,23.37,0,0,1-4.93-19.57c3-14,18.55-18.25,19.74-18.56,11.9-3,21.66,3,25.19,5.62,9.19,6.78,11.56,16.27,12.43,19.75,1.15,4.59,2.61,10.47-.51,15.32-2.1,3.25-5.54,4.89-9.19,6.63a38.18,38.18,0,0,1-9.71,3.07c-5.12.91-18.25,3.27-24.85-3.07a18.84,18.84,0,0,0-7.15-4.59c-2.26-.77-3.11-.49-3.57-.17-1.62,1.12-1,4.51-.68,6.13a16.75,16.75,0,0,0,3.23,7.14,21.71,21.71,0,0,0,6.81,5.45c11.2,6.65,10.74,9.71,16.51,11.07,4.18,1,7.51.1,12.77-1.37,8.11-2.26,12.17-5.23,20.59-10,16.35-9.32,25.36-12,30-13.11,4.91-1.21,10.46-2.11,16.34,0,.76.28,8.83,3.27,8.85,7.66,0,2.67-2.93,4.7-4.59,5.79-13.11,8.61-26.39,11.36-39.49,18.21-7.17,3.75-6.33,4.57-19.58,12.09-7.6,4.32-11.41,6.48-16.51,8.51a90.69,90.69,0,0,1-26.72,6.13c-6,.45-10.28.16-17.19-.34-18.81-1.37-36.41-2.65-39.49-11.07-1.22-3.34.65-5.6-1.7-10.89a15.46,15.46,0,0,0-6.47-7.49,14.66,14.66,0,0,0-5.79-1.53c-7.3-.87-13.08-3-19.06-5.28-4.56-1.7-9.61-4-12.6-5.45-1.9-.88-2.85-1.32-3.23-1.53-7.88-4.24-8.31-9.38-16.85-17-2.88-2.57-4-3-5.45-5.27a19.73,19.73,0,0,1-2.89-10.22,81.19,81.19,0,0,1,3.23-26.21c3.07-9.82,4.6-14.74,9.53-18.89,5.38-4.54,11.38-5.38,15.49-6,5-.7,17.56-2.47,24.17,5.28,3.75,4.39,3.94,9.92,4.09,14.29.22,6.61-1.64,11.49-4.26,18.39-.32.83-3.79,9.89-7.15,14.63a48.81,48.81,0,0,0-3.55,5.82c-.14.27-.73,1.42-1.21,2.52-.91,2.08-3.17,7.22-2.39,10.56.88,3.75,5.68,5.52,10.56,7.32,9.75,3.59,21.52,4.24,26.55,6.29,1.69.7,3.14,1.45,3.14,1.45,1.85,1,2.68,1.59,4.17,2.45a44.11,44.11,0,0,0,4.94,2.4,111.41,111.41,0,0,0,17,5.45c16.47,3.38,50.09-6.39,50.21-6,.07.25-10.66,5.9-22,2.56-2.27-.68-4.57-2-9.19-4.6-2.3-1.3-6.6-3.83-17.19-11.23-8-5.59-9.59-7-13.45-8a29,29,0,0,0-10-.69c-4,.24-6.93.46-8.17,2.56a5.54,5.54,0,0,0-.17,4.42,7.42,7.42,0,0,0,3.74,3.75,81.48,81.48,0,0,0,11.58,5.1c5.94,2.11,10.45,4,13.1,5.11,1.85.77,4.53,1.9,7,3.06,5.84,2.79,10.33,5.81,20.26,13.28,6.28,4.72,5.63,4.38,12.42,9.53,14.55,11,18.73,13.55,24.34,15.32a36,36,0,0,0,11.58,1.87,42.42,42.42,0,0,0,11.06-1.87c3.39-.91,3.6-1.26,10-3.4,5.92-2,8.91-3,10.9-2.9,2.28.07,4.22.69,11.06,4.77,9.32,5.55,8.76,6.21,15.49,10,3.57,2,7.78,4.16,13.11,7.83a27.47,27.47,0,0,1,5.1,4.43,25.57,25.57,0,0,1,4.09,6.13c1,2.17,1.48,4.1,1.53,4.08s-4-7.5-2-14c1-3.33,3-4.28,9.7-9.7,12.8-10.36,11.79-12,20.09-17.7,3.64-2.53,6.49-6.2,10.38-8.34a5.57,5.57,0,0,0,2.89-2.89c.4-1.19-.1-1.74-.85-5.45-.36-1.77-.55-3.17-.85-5.28-.21-1.49-.32-2.26-.39-3.29-.12-1.6-.06-2.15-.18-4-.07-1.2-.13-1.5-.28-3.08a33.41,33.41,0,0,1-.34-5.62c.56-2.71,3.79-4.52,5.62-5.1,7.16-2.3,16.21,6.71,25.87,16.34,4.39,4.37,6.62,6.63,8.51,10.21,1.66,3.16,2.36,5.84,5.79,12.42a17.05,17.05,0,0,0,4.76,6.13A16.32,16.32,0,0,0,1254,735c4.88,1.92,8.3,3.26,13.44,3.92a35.8,35.8,0,0,0,15.66-.85,29.35,29.35,0,0,0,3.19-1.15c4-1.7,6-3.57,16.56-11.79h0c5.7-4.43,10.46-7.77,14-10.21,14.84-10.1,22.26-15.14,25.28-15.57,9.81-1.4,15.52,3.63,24-.26a18.26,18.26,0,0,1,7.15-2c3.74-.22,6.42,1,9.7,2.3,16.4,6.72,17.2,5.31,24.25,9.7,3.73,2.32,4.18,3.13,6.39,3.57,5.9,1.19,12.49-2.59,16.08-7.4,5.63-7.54,3.29-16.76,2.81-18.64-1-3.84-3.54-7.5-8.68-14.81-3.41-4.85-5.11-7.27-7.66-10-5-5.25-8.11-6.59-10.47-11.74a20.53,20.53,0,0,1-1.79-6.64c-.31-3.87.64-7.25,2.3-11,3-6.64,7.77-17.43,19.92-24.51,5.2-3,10.23-6,16.85-5.36,15.24,1.39,22.38,20,22.72,20.94,1.12,3,4.73,12.86,0,22.72-3.85,8-11.13,11.69-13.79,13-4.24,2.13-7.9,2.77-12.51,3.57-7.88,1.38-12.21.55-13.53.26-3.78-.82-5.67-1.23-6.89-2.81-2.14-2.76-.57-6.27-2-14.3a6.64,6.64,0,0,0-2-4.08,5.92,5.92,0,0,0-3.57-1.28,7.68,7.68,0,0,0-5.19,2.13c-3.05,2.61-3.64,6.41-3.92,8.34s0,2.4,1.19,11.23c1.31,9.3,1,8.35,1.37,9.88.66,2.76,1.3,4.29,1,6.8a8.46,8.46,0,0,1-2.22,5.45c-2,1.93-4.86,1.81-7.66,1.7a19.78,19.78,0,0,1-8.85-2.21c-4.76-2.53-4.86-5.23-10-8.34a26.56,26.56,0,0,0-6.47-2.72c-13.48-4.11-28.51,2.21-30.46,3.06-3.4,1.48-12.21,5.73-16,7.09a60,60,0,0,1-6.82,1.93l-.41.09a86.26,86.26,0,0,1-9.3,1.27c-12.78,1-23.25,4.58-40,3.75a50.86,50.86,0,0,0-11.74.51c-5.27.87-10.47,1.73-12.6,5.62-1.54,2.81-.79,6,0,9.36.53,2.22,1.39,5.7,4.43,8.34a14,14,0,0,0,4.08,2.38c2.19.92,4.76,2,7.49,1.19,1.61-.47,2.63-1.41,4.6-3.23a27.62,27.62,0,0,0,3.23-3.58c2.76-3.28,9.16-1.38,18.22-1,3.17.13,10.91-.76,26.38-2.55,8.42-1,4.41-1,5.62-1a6,6,0,0,0,4.22-1.32l.2-.21c1.66-2-.4-6.53-.68-7.15a18.89,18.89,0,0,0-5.79-7.15c-8.62-6.52-14.42-4-20.42-9.19-3.56-3.07-4.8-6.77-6.3-11.24-4.15-12.38-.6-23.66,1.36-29.61,3-9.15,6.91-21,18.39-26.22a30.19,30.19,0,0,1,18.72-1.7c6.8,1.56,11,5.1,15.66,9,4.21,3.55,9.4,7.92,12.08,15.49,1.09,3.08,2.72,7.67,1,12.77-1.81,5.44-6.44,8.55-8.17,9.7-2.92,2-3.78,1.55-10.21,5.28-2.76,1.59-4.79,2.94-5.79,5.44a8.58,8.58,0,0,0-.51,4.09c.17,1.08.94,4.39,11.75,10,7.38,3.86,11.07,5.79,15.15,6.47,2.84.47,6.29.64,7,2.55.44,1.25-.5,2.64-1,3.41A104.33,104.33,0,0,1,1353,709.25a64.12,64.12,0,0,0-7.83,10.39c-.9,1.42-1.86,3.06-5.79,10.89-6.1,12.19-5.43,11.56-6.63,13.28a35.21,35.21,0,0,1-14.13,11.91c-3.86,1.72-7.28,2.08-14,2.72a131.94,131.94,0,0,1-29.11-.34,115.49,115.49,0,0,1-17.53-3.4c-11.79-3.29-15.49-6.46-25.7-7.32-10.49-.88-13.35,1.89-14.3,3.06-1.55,1.93-1.67,4.16-1.78,7.07-.52,13.07-.78,19.61-.77,19.66,1.84,21.13-1.2,21,1,43.66.77,7.83,1.6,12.64.51,20.17-1.77,12.22-6.47,17-7.66,18.13-3.09,3-6.25,4.2-10,5.61-7.29,2.79-13.09,3.11-20.93,3.58-26.46,1.57-26,1.79-29.87,1.53-11.06-.76-16.92-1.17-23-5.11-4.41-2.86-9.41-7.92-13.53-19.4-10.26-28.57-1.08-58-1-58,9.93,1.52-2.7,19.9-3.83,29.87-.33,3-2.91,27,1.28,43.66a16.38,16.38,0,0,0,4.6,8.43c4.18,3.82,9.76,4,12.25,4.08,20.63.47,103.25-1.84,114.38-.51.34,0,2,.25,4.16.34a60.65,60.65,0,0,0,13.72-1.1c6.3-1.15,9.51-1.76,12-4.09a13.86,13.86,0,0,0,3.06-4.34c3.51-7.32,2.63-15.39,1.79-24-1.9-19.49-1.06-16.16-1.79-20.17-2-10.93-6.38-25.52-7.66-33.19-.44-2.64-.68-5.05-.68-5.05-.27-2.71-.28-4.31-.4-6.72,0,0-.13-2.4-.71-8.15-1.42-14.17-8.62-31.65-4.08-42.63,4-9.67,16.43-12.74,32-16.6,18.81-4.65,17.57,1.24,51.45-1.53,11.9-1,22.17-2.53,31.15,3.57,1.76,1.2,1.9,1.63,9.57,7.79,8.22,6.6,12.33,9.91,15.45,11.87,9.51,6,18.89,7.22,24.25,7.92,9.94,1.3,25.33,3.31,35-5.62,1.28-1.18,3.86-5.89,9-15.32,5.27-9.61,7-14,8.17-18.89.63-2.7.76-5.77,1-11.92a11,11,0,0,0-1-6.13c-.72-1.3-1.23-1.37-1.7-2.55a7,7,0,0,1,1-6.64c1.7-2,4.35-2.12,8-2.21,4-.1,7.77-.19,11.58,2.21,4.81,3,6.4,8,7,9.88,1.19,3.91.66,6.52-.34,14.29-.79,6.12-1.3,12.27-2,18.39-2.29,18.76-1.36,17-2.21,19.57-4.86,14.77-18.45,21.74-19.57,22.3-5.89,2.91-10.72,3.3-18.22,3.91-12.7,1-23.88-.73-37.1-2.89-12-2-16.79-3.46-23.32-.85-2.85,1.14-6.41,3.21-11.41,9-13.34,15.52-16.69,34.13-18.89,47.15a126.37,126.37,0,0,0-1.7,24.85c.15,12.65,1.77,17,2.55,18.89,3,7.3,7.75,11.61,11.06,14.64,4.81,4.39,8.11,7.41,12.43,7s7.31-4,9.19-6.3,3.25-4.64,4.94-9.7A73.87,73.87,0,0,0,1410,842c.36-4.72.34-8.47-.51-22.64-.72-12.14-1-14.09-1.36-20.94-.23-4.14-1.52-27.42-.17-27.57,1.64-.18,5.31,34,17.19,62.13,1.56,3.68,5.07,9.37,12.09,20.76,5.09,8.27,8.21,12.76,13.1,13.45,2.65.37,3.7-.67,8.85-.17a48.69,48.69,0,0,1,8.86,1.87c3.79,1.07,6,1.93,8.68,2.9a106.26,106.26,0,0,0,14.46,4.25c8.7,1.74,13.75,2.75,17.54-.17,2.25-1.74,5-5.61,6.46-9.87,0-.09.11-.31.21-.62.66-2.11,2-7.2.13-19.3-.06-.39-.24-1.6-.54-3.22a124.51,124.51,0,0,0-4-16c-1.71-5.43-3-11.34-5.62-23.15-1.95-8.84-2.94-13.38-3.57-18.89a113.75,113.75,0,0,1-.34-19.75c.38-5.7,1-8.49,2.21-11.23a40.26,40.26,0,0,1,4.77-7.83c2.79-3.73,3.16-3.13,4.25-5.11,1.64-3,.88-4.44,1.53-13.1.47-6.14.93-6.58.34-8.68-.46-1.66-1-2.16-4.25-7.66-3-5-3.08-5.45-3.58-5.45-2.57,0-4,13.34-7.32,27.91-3.22,14.13-5.21,16.19-8.51,28.26A184.67,184.67,0,0,0,1484.6,811c-.11,18.92-.27,46.33,13.78,53.45,2.22,1.12,4.55,1.54,9.19,2.38a74.75,74.75,0,0,0,26.22,0c27.48-4.59,55.72-1.17,83.57-2l38.13-1.19c22.56-.53,43,.12,160.77,9.78,19.74,1.62,47.89,4,83.48-3.83,8.62-1.88,15.62-3.91,20.26-5.36"/></svg>