<svg id="레이어_1" data-name="레이어 1" xmlns="http://www.w3.org/2000/svg" viewBox="0 0 1920 600"><defs><style>.cls-1{fill:none;stroke:#000;stroke-miterlimit:10;}</style></defs><title>1대지 1</title><path class="cls-1" d="M908.16,0C900,69.2,1153.44,32.14,1189.44,59.74c23.26,17.82,73.3,62.73,64.09,87.66-1,2.83-6.66,15.67-19,20.57-4.31,1.71-13.48,4.06-16.35,0-2.34-3.3-.23-10.41,4.74-13.19s11.22,0,14.25,3.17c5.12,5.36,3.9,14.23,1,19.51-4.31,8-15.19,13.06-24.26,11.61-22.83-3.67-22.57-46.81-43.78-50.11-12.29-1.92-27,10.29-26.9,19.51,0,8.13,11.47,9.28,21.62,24.27,2.5,3.69,13.93,20.55,8.44,33.75-7.29,17.56-40,17.94-41.67,17.94-23.78,0-32.34-12.91-44.83-6.86-12.15,5.88-7.11,19.58-20.58,26.9-16,8.72-40.93-1-45.36-6.85-2-2.69-3.81-3.91-7.38-6.33a5,5,0,0,0-3.3-1.19c-1.28.13-2.51,1-4.61,4.35a45,45,0,0,0-4.09,8.31c-1.48,3.82-2.21,5.73-3.3,9-.58,1.72-3.83,11.4-4.48,15.64A26.73,26.73,0,0,1,993,281c-.33,1.14-.4,1.09-.66,2.06a13.25,13.25,0,0,0-.53,4.75c.09,1.05.18,1.9.79,2.24a1.85,1.85,0,0,0,1.58-.13c.63-.35,1.12-1,1.45-2.77a17.17,17.17,0,0,0,.14-4.49,21.91,21.91,0,0,1,1-5.8c1-3.74,1.88-6.11,2.64-8.31,2.94-8.5,1.24-8.14,3.56-13.18,3.62-7.91,4.88-10,4.88-10a10.18,10.18,0,0,0,1.18-3.16c.2-1,.57-2.87-.39-4.35a5.17,5.17,0,0,0-2.38-1.72c-1.88-.93-3.62-2.15-5.53-3-4.85-2.22-4.54-2.55-9.37-4.75-6.17-2.81-11.35-4.4-14-6.46-.23-.18-1.3-1-2.85-2.11-1-.73-1-.66-2.17-1.45-2.87-2-3.37-2.6-4.61-2.64a5,5,0,0,0-1.58.27,9.12,9.12,0,0,0-3,1.58c-1.6,1.32-2.06,3-2.77,4.75-.84,2-2,3.61-4.22,6.72a37.16,37.16,0,0,1-7.25,7.39,44.16,44.16,0,0,1-15.72,8.72,41.38,41.38,0,0,1-40.75-10.34c-.79-.79-8.1-8.16-9.1-13.65a19,19,0,0,0-1.83-5.14,6.05,6.05,0,0,0-2-2.67,5.29,5.29,0,0,0-2.47-.94,5.4,5.4,0,0,0-2.72.4,5.74,5.74,0,0,0-2.18,1.68,8.49,8.49,0,0,0-1.58,3.26c-.74,3.33,1.36,6.94,2,8.06,5.38,9,8.07,13.5,11.32,16.62,10.29,9.85,22.43,12.9,27.8,13.89,4.89.91,19.74,3.64,33.67-4.25,6-3.39,3-3.73,17.51-16.42a27.35,27.35,0,0,0,7.86-11.57,7.61,7.61,0,0,0,.3-4.4c-.83-3.1-4-5.29-6.88-5.74-1.31-.2-2.52.05-4.94.55a37.4,37.4,0,0,0-5.49,1.63c-3.88,1.36-6.45,2.27-8.51,2.82-.88.23-3,.75-9.39,1.13-1.47.09-6.88.4-18,.15-8.64-.19-6.48-.39-11-.39-1.56,0-8.78,0-13.3-1.09a12,12,0,0,1-4.21-1.68c-.24-.17-1-.72-2.13-1.53-.59-.4-.88-.61-1.18-.8a26.78,26.78,0,0,0-3.61-2h0a15,15,0,0,0-3.91-1.09c-4.76-.6-16.91,4.4-16.91,4.4-4.68,1.93-7,2.9-9.49,3.86-4.61,1.79-10.88,4.12-16.27,8a9.77,9.77,0,0,0-3.51,4.05,10,10,0,0,0-.6,5.39c.28,2.17.95,3.16,2.18,5.94A57.52,57.52,0,0,1,838,256.05c.14.81.36,2.16.52,3.88.83,9.29-1.59,15.13-1.46,20.8a34.38,34.38,0,0,1,.06,5.16,6.12,6.12,0,0,0,0,1.86,2.34,2.34,0,0,0,.35,1.24,1.65,1.65,0,0,0,1.58.64c.59-.13.94-.66,1.24-1.28a10.66,10.66,0,0,0,1.14-4.36c-.05-4.45.9-2.2.94-12a93.12,93.12,0,0,0-.35-10.73c-.21-2.05-1-5.87-2.62-13.5a26.08,26.08,0,0,0-3.17-8.8,7.62,7.62,0,0,0-3.26-3.37,7.75,7.75,0,0,0-5.54-.15,9.06,9.06,0,0,0-3.36,2A168,168,0,0,0,810.5,252L798.14,265c-3.36,3.54-6.33,7.44-9.6,11.07-1.22,1.37-5.35,5.94-5.63,9.69a14,14,0,0,0,1,5.3c.15.28.33.55.33.56l.16.23c6.21,8.76,11.18,14.59,11.18,14.59,2.11,2.48,6.11,7,7.61,8.71.41.46,1.84,2,3.56,4.34h0a51.56,51.56,0,0,0,8.11,8.36,16.7,16.7,0,0,0,3.36,2.32,10.22,10.22,0,0,0,6.78.55c2.27-.67,3.63-2.05,5.74-4.21a25.27,25.27,0,0,0,2.76-3.36,31.29,31.29,0,0,0,4.46-13,20.73,20.73,0,0,0,.14-2.59,12.77,12.77,0,0,1-.11-2.1,14.43,14.43,0,0,0,.21-2.33h0c0-1.88.57-4.56.15-7.27-.15-1-.36-1.48-.79-1.73a1.79,1.79,0,0,0-1.48,0,2.82,2.82,0,0,0-1.49,1.53,4.18,4.18,0,0,0-.29,2.28c.33,2.53-.22,5.12,0,7.67.34,4-.16,3.63-.1,13.89,0,4.59.14,7.79.19,9.64.36,11.57,0,26-.09,31.7-.78,38.94.22,105.13.09,108.59,0,.13,0,.78,0,1.65a22.56,22.56,0,0,0,.27,2.71c.4,2.56.6,3.84,1.35,4.74a4.23,4.23,0,0,0,2.7,1.58,1.92,1.92,0,0,0,.5,0c4.52-.37,9.07,0,13.61,0s22.65-.07,36.6,0c19.38.11,17.11.38,33.69.46,36.81.2,32.52-1.13,38.34-.1,1,.18,10.81.3,30.46.53a6.32,6.32,0,0,0,3.83-1,6.7,6.7,0,0,0,2.24-3.3,9.8,9.8,0,0,0,.39-4.62c-.59-4,1.09-6.58.79-31.12-.16-13.32-.78-23.45-1.18-29.8-.45-7.15-.94-12.86-1.32-17.4-1.5-17.69-1.92-17-2.38-24.93a232.78,232.78,0,0,1,.27-31.78c.54-6.77,1.27-11.69,1.05-19.51-.2-7.46-1-7.63-.39-11.61.47-3.13,1.41-6.08-.27-8.44-.64-.9-1.88-2-2.77-1.71-.37.12-.8.54-1.18,2.63a19.85,19.85,0,0,0-.27,5.41c1,8.93.79,8.47,1.19,10.55a36.39,36.39,0,0,0,1.45,6.07,23.12,23.12,0,0,0,5.94,8.7c2.48,2.21,6.05,3.32,13.18,5.54a5.62,5.62,0,0,0,3.43.13,4.61,4.61,0,0,0,1.45-.79c6.06-4.69,10.38-7.05,13.19-12.66h0a22.28,22.28,0,0,1,6.43-7.62c1.56-1.24,5.62-5.71,13.74-14.67,7.36-8.1,3.26-5.12,4.49-6.33.17-.17.74-.71.66-1.31s-.8-1-.93-1.06c-2.13-1.2-14.83-18.16-17.27-21.36a189,189,0,0,0-20.57-22.55"/></svg>