<svg id="레이어_1" data-name="레이어 1" xmlns="http://www.w3.org/2000/svg" viewBox="0 0 1920 1080"><defs><style>.cls-1{fill:none;stroke:#fff;stroke-miterlimit:10;}</style></defs><path class="cls-1" d="M252.17,674c57.82-1.13,85.12-2.34,121.79,1.53,31.48,3.32-31.13-2,54.64,3.4,14.28.91,32.28,2.05,54.46-2.38,11.69-2.33,19.18-5.15,26.22-10.21,5.7-4.11,15.54-10.46,17.7-21.11,1-4.89-.64-5.59.34-14.3.87-7.81,2.34-8.58,3.74-17,1.38-8.25.1-8.21,1.37-19.06.88-7.56,1.54-7.94,2.72-17.7,1.2-10,.94-13.14,0-16.34s-2.33-7.88-6.47-10.22c-1.51-.85-3.76-1.59-16,.68-7.78,1.45-8.19,2-14.3,3.07a117.62,117.62,0,0,1-17,1.7A56.09,56.09,0,0,1,466,554.64a21.12,21.12,0,0,1-6.13-2.38,20.84,20.84,0,0,1-6.12-5.79c-7.08-9.68-12.42-22.57-12.94-23.83a124.51,124.51,0,0,0-5.11-11.92,95.27,95.27,0,0,0-5.44-9.19c-2.54-3.92-3.84-5.9-5.45-7.15-1.84-1.43-4.18-2.2-8.85-3.74-3.72-1.23-4-1.08-8.17-2.38-6.46-2-9.33-3.47-9.53-3.07s2,2,2.38,1.7c.57-.46-3.21-3.79-3.4-8.51-.21-4.93,3.62-8.73,4.42-9.53a17.65,17.65,0,0,1,7.15-4.08,18.46,18.46,0,0,1,8.51-1.37c1.62.19,4.8.83,9.87,5.11,4.28,3.6,6,6.5,10.22,12.26,2.22,3,6.78,9.3,11.57,14.63,4.35,4.84,7.85,7.77,13.62,12.6,8.19,6.85,13.2,11,21.1,15a45.75,45.75,0,0,0,17.37,5.11A22,22,0,0,0,512.34,526c2.87-1.43,3.58-2.73,3.75-3.06,1.21-2.38-.22-4.25.34-7.49.21-1.23.49-1,3.06-5.79,2.32-4.28,2.13-4.39,2.72-5.1,2.71-3.26,8.18-2.89,11.58-2.73,7.37.36,14.75-.38,22.12-.34a151.57,151.57,0,0,0,24.86-1.36,143.92,143.92,0,0,0,17-3.74c10.64-2.83,16.66-4.42,24.17-8.17,4.87-2.44,6.59-3.89,12.25-6.13a67.64,67.64,0,0,1,12.6-3.75c6.87-1.26,11.64-.76,18.38-.34,13.86.88,17.56,1.1,25.87.68.18,0,3-.24,8.75-.72a8.13,8.13,0,0,0,2-.51c1.12-.41,1.33-.72,1.4-1a1.38,1.38,0,0,0-.19-1,2.26,2.26,0,0,0-1-.89c-1.4-.74-1.3-1.29-3.89-2.75a52.85,52.85,0,0,0-5-2.17c-3.11-1.38-3.26-1.8-5.49-2.74a29.71,29.71,0,0,0-6.13-1.79c-8.9-1.86-9.23-3-15-3.89a53.45,53.45,0,0,0-14.93.12c-7.83.87-11.75,1.31-14.3,3.51a32.12,32.12,0,0,1-5.87,3.77,11,11,0,0,1-2.3.77,2.2,2.2,0,0,1-1.28,0c-.15-.06-.59-.22-.7-.58s.29-.81.64-1.27l1.15-2.3c5.52-11.07,6.32-29.56,6.32-29.56.37-8.58.55-12.87-.9-18.51-1.09-4.24-2.93-11-8.93-17a32.88,32.88,0,0,0-14.56-8.17c-4.27-1.27-12-3.56-20.17-.26-9.3,3.78-13.22,12.54-14.81,16.08-7.7,17.23,1.11,34.26,2.05,36,5.55,10.33,15.35,17.1,16.08,17.37a1.67,1.67,0,0,1,.74.48,2,2,0,0,1,.44,1.08,11.6,11.6,0,0,1,.26,2.23,11.88,11.88,0,0,1-.54,3.71,12.27,12.27,0,0,1-1.7,3.22c-2.18,2.88-5.52,3.73-7.75,4.28a22.78,22.78,0,0,1-6.34.66c-29.55-1.46-44.33-2.19-52.6-.17,0,0-8.91,2.17-15.15-.68a8.08,8.08,0,0,1-3.91-3.41,7.06,7.06,0,0,1-.77-2.89c-.31-5.24,4-14.61,6.64-20.68a57,57,0,0,0,3.58-10.56,25,25,0,0,0,.51-8.17,24.45,24.45,0,0,0-.51-2.93,38.53,38.53,0,0,1-12.51,15.7,37.87,37.87,0,0,1-8.56,4.47,39.61,39.61,0,0,1-8.42,1.91,66.83,66.83,0,0,1-16.22-.13c-8.52-.95-12.78-1.42-16.72-4.08a20.75,20.75,0,0,1-7.53-8.81c-3.55-8.22.09-16.49,1.66-20,5.94-13.48,18.89-18.79,22.72-20.17,5.06-1.82,16.61-6,26.17.13,6.66,4.25,8.91,11.28,9.83,14.17,3.4,10.61,0,20-2,25.4-1.34,3.65-7.35,18.7-23.49,27.7a48.9,48.9,0,0,1-22.09,6.39c-3.54.11-7-.39-13.91-1.41-9-1.32-10.43-2.34-11.36-3.45-3.09-3.66-1.59-9.6-.64-13.4a29.47,29.47,0,0,1,5.74-11.36,28.67,28.67,0,0,1-1,13.15c-.48,1.44-1,2.47-.64,3.83.82,3.14,5.34,4.5,10.09,5.87,6.65,1.91,8.3-.3,11.62,1.91,3.86,2.58,4.81,7.15,5,8a6.09,6.09,0,0,1-.26,4c-.95,1.94-3,2.66-4.21,3.07-3.18,1.07-5.21.32-9.45.13a59.82,59.82,0,0,0-8,.38c-1.54.16-6.08.75-15.07,5.49-10.81,5.7-18.64,9.83-21.31,18.13a19.16,19.16,0,0,0-.9,6.25c0,28.2,2.94,64.47,2.94,64.47,2.33,28.52,3.5,42.78.25,50.17-2.3,5.24-7.51,14.45-4.34,23.49,1.81,5.15,6.21,9.87,6.77,10.47a37,37,0,0,0,9.57,7.15,50.64,50.64,0,0,0,13.79,5.1c42.4,9.41,69.57,4.85,69.57,4.85a149.33,149.33,0,0,0,49.54-17.74,16.18,16.18,0,0,0,3.83-2.3c3.12-2.8,3.92-6.65,4.85-11.49,1.55-8.08,2.33-12.12,2.42-13.28.6-7.5,4.4-50.3,5.88-61.78a25.71,25.71,0,0,0-.9-10.85,17.46,17.46,0,0,0-3.06-5.88,18.94,18.94,0,0,0-3.83-3.44c-3-2.21-4.52-3.34-6-2.94-2.1.58-2.84,3.91-3.19,5.49-1.33,6,1.23,11.28,1.91,12.77C559,573,560.25,582,563,590.47c5.85,17.81,6.74,21.29,7.53,25.79a134.17,134.17,0,0,1,1.71,15.31c.44,8.11.66,12.16-.17,15.32-.73,2.74-1.82,5.17-1.54,9a19.65,19.65,0,0,0,1.54,6.13,22,22,0,0,0,6.46,8.34c12.15,10.16,36.6,14,36.6,14a109.35,109.35,0,0,0,35.23.17c8.84-1.49,15.52-3.94,20.6-9.36a12.48,12.48,0,0,0,3.23-4.26,11,11,0,0,0,0-7c-2.07-7.19,1.21-28.92.51-67.57-.58-32.57-3.29-38,1.88-51.06,5.36-13.59,13.32-20.47,15.31-22.13,12.4-10.29,26.58-11.47,30.47-11.75,15.59-1.08,19,5.42,41.19,4.94,6.29-.13,10.8-.27,16.52-2.21,8-2.71,9.52-6,20.76-11.07,6.53-3,9.79-4.44,14.64-4.93,7-.71,14.85.83,17.53,1.36,5.46,1.08,10,2.57,13.45.34A5.23,5.23,0,0,0,849,496.6a5.53,5.53,0,0,0-1.19-4.09c-2.33-3.4-16.77-16.44-35.23-12.94-3.94.75-8.53,2.43-17.71,5.79l-9.53,3.58c-10.91,4.1-11.39,4.32-13.1,4.76a62.85,62.85,0,0,1-14.3,1.87c-3.57.14-3.46-.09-13.45-.51-11.85-.48-13-.19-17.36-1-2.74-.52-5.17-1.19-10-2.55-7-2-8.28-2.66-11.58-2.89-2.54-.18-6.92-.49-10.55,1.53-5.28,2.93-6.85,9.59-7.66,14-3.76,20.21.76,34.52.17,56-.15,5.55-1.18,12.78-3.23,27.23-1.51,10.62-2.47,15.34-7.15,44.25,0,0-.75,4.64.85,39.15a4.64,4.64,0,0,0,1,2.9c1.16,1.32,3,1.46,4.25,1.53,8.56.5,9.42.18,12.26.68a24.3,24.3,0,0,1,7.15,2c1.64.81,2.39,1.46,4.08,1.7.52.08,3.74.5,5.28-1.36a5,5,0,0,0,.85-2.72c.54-3.51.87-2.79,1.53-6.64.82-4.7.3-6.24.85-11.74a75.34,75.34,0,0,1,2-11.24c.24-1,1.2-4.75,2.89-9.53,1-2.78,1.39-3.59,2.21-6.3a28.16,28.16,0,0,0,1.53-7.83,10.87,10.87,0,0,0-.51-4.59,11,11,0,0,0-2.89-4.09c-2.43-2.3-3.76-2.11-6-3.74-2.6-1.94-3.71-4.43-4.93-7.15a29,29,0,0,1-2.39-10.21c-.91-13.52-1.43-21.18.86-32.17a97,97,0,0,1,5.78-18c2.7-6.27,4.77-11,9.19-15.49,2.49-2.54,4.51-3.78,11.24-7.66,20.92-12.06,23.24-12.64,25.19-16.51,1.1-2.18,1-7.58.85-18.38-.14-9.08-.73-12.37-.85-20.6-.14-9.19-.32-13.84.51-17A35.91,35.91,0,0,1,771.06,429c1.89-1.62,13.56-11.7,26.56-8.51,8.4,2.07,12.65,8.53,19.91,19.58,5.2,7.9,12.82,19.49,12.6,35.57-.06,4.33-.15,10.87-3.75,18-6.11,12.19-18.37,18.24-23.49,20.77-1.88.93-3.48,1.6-4.59,2,7.87,0,18.29.19,30.64.51,13.92.37,18.53.67,23,4.26a39,39,0,0,1,10.39,14.29,34.4,34.4,0,0,0,5.61,9.88c2,2.34,3.56,3.48,5.45,3.91,1.14.26,2.78.35,5.62-.68a23.69,23.69,0,0,0,8.68-5.62c5.34-5.55,9-4.53,28.6-17,14.68-9.37,16.85-12.65,18-15,3-5.8,4.74-9.24,4.76-13.95a20.26,20.26,0,0,1,1.71-9c1.23-2.65,2.27-3.12,2.55-3.24,2.14-.87,4.14,1.2,8.51,3.75,7.56,4.4,10.61,3.49,12.08,6.8a8,8,0,0,1-.51,7c-1.32,2.25-3.31,2.64-6.63,4.43a43.5,43.5,0,0,0-9,6.81c-4.31,4.31-5.29,9.22-6.46,12.93-1.91,6-6.89,12.25-16.85,24.68-10.14,12.65-15.39,19.07-24.17,23.49-4.24,2.13-10.39,5.13-17.2,3.41-4.57-1.16-8-4.08-11.4-7-6.1-5.21-6.59-8.3-11.92-10.72-1.75-.8-5.24-2.39-9-1.54-4.79,1.09-7.93,5.62-10.55,11.24-3.32,7.11-7.19,19-6.81,46.3.23,16.05.34,24.08.51,25.87.58,6,1.53,12.25-1.19,19.57-2.27,6.12-5.46,8.5-6.81,9.36a16.19,16.19,0,0,1-7.83,2.39c-8.27.59-25.75,1.92-48.85,3.4l108.94-3.57a63.7,63.7,0,0,1-4.26-8.68c-8.47-21.3-3.18-42.15.51-52.77-4.07,22.41.53,43.7,13.79,53.28,7.27,5.25,18.18,7.73,21.11,8.34,6,1.24,6.89.57,23.49.85,20.62.34,27.45,1.51,33.53-3.58a16.58,16.58,0,0,0,4.93-6.63c2.08-5.29.5-10.23-.68-14.47a179.82,179.82,0,0,1-4.76-26.56c-.54-5.19-.25-11,.34-22.63.24-4.72.68-11.49,4.08-15.83a17.84,17.84,0,0,1,6.81-5.28,14.54,14.54,0,0,1,2-.6c-8.4-1.61-10.47-2-10.47-2a48.11,48.11,0,0,0,20.43,1.53c5.17-.81,13.7-2.14,18-9.27s1.64-14.87,1.28-15.92c-3.55-10.13-14.36-13.4-16.77-14.13-9-2.71-16.31,0-27.92,4.26-9.61,3.54-18.6,6.84-20.08,14-.73,3.56.6,6.91,2,9.28-12.54-8.67-16.84-17.71-18.56-22.9-1-3-1.74-9.1-3.23-21.27-1.21-9.91-1.82-14.86-1.45-17.53a46.17,46.17,0,0,0,.09-11.41c-.28-2.37-.71-4.36-2.3-5.87a6.34,6.34,0,0,0-5-1.79,6.12,6.12,0,0,0-3.24,1.79,12.75,12.75,0,0,0-2.89,5c-.23.6-.4,1.11-.51,1.45a48.39,48.39,0,0,1-3.83-4.94c-1.76-2.61-1.77-3.17-2.72-3.83-2.68-1.85-7.43-.75-10.39,1.7a11.62,11.62,0,0,0-3.83,6.9c-.89,5.33,2.09,9.65,4.52,13.7,2.11,3.52,4.83,9.95,10.29,22.81,4.54,10.68,3.18,10.48,8.17,22.89,3.66,9.08,5.94,14.76,10.3,21.53,6.54,10.17,11.84,18.42,21.28,20.09A24,24,0,0,0,960,590.72c2.57-1.94,2.5-2.9,4.77-4.93,5.9-5.3,16.53-7.93,23.66-4.77,12.89,5.72,12.17,29.44,12.08,32.43-.22,7.16-2.06,15.8-5.74,33.06a85.59,85.59,0,0,0-1.28,11.62c-.36,6.34,0,9.16,1.4,11.87a14.32,14.32,0,0,0,4.09,5,14.67,14.67,0,0,0,7.4,2.68c10.21,1.12,22.38,1.6,29.62,2.43,6.63.75,4.28,1.25,17.74,3.57a150.06,150.06,0,0,0,21.32,2.3,55.13,55.13,0,0,0,16.34-2.3c2.12-.67,4.92-1.76,6.26-4.34a9.58,9.58,0,0,0,.89-3.58A18.49,18.49,0,0,0,1098,669a94.92,94.92,0,0,0-3.06-10.85c-5-12.34-1.47-41.73,0-54,.66-5.51,1.59-11.84,3.06-19,1.07-5.21-.08-9.93,3.19-13.54.5-.54,2.84-3.11,6.13-3.19,2.55-.06,4.42,1.41,8.43,5,5,4.51,7.35,6.88,9.06,8.43,2.41,2.17,3.38,2.48,14.68,8.42,14.75,7.76,16.32,8.94,20.43,9.07,1.92.05,7.6.15,12.51-3.45,1.36-1,3.33-2.78,8-13.53s4-12,7.66-18.13c1.23-2.09,3-4.67,6.51-9.83a76.74,76.74,0,0,1,5.75-7.91c4-4.29,5.58-3.54,11.23-8.17a37.38,37.38,0,0,0,9.7-11,24.52,24.52,0,0,0,3.45-10.34,23.66,23.66,0,0,0-.51-7c-.53-2.3-.85-3.72-1.92-5.23-1.27-1.78-3.67-2.87-8.42-5-3.69-1.63-4.25-1.59-4.73-1.4-3.06,1.23-2.81,9.18-2.76,9.19s2.58-8.57-.68-11.4c-1.31-1.15-2.62-.54-10.56.34-8.78,1-12.43.81-15.66-1.2a6,6,0,0,1-2.21-1.87c-2.48-3.88,2-10,5.28-17,3.13-6.66,4.19-11.95,5.62-18.89,2.29-11.19,4.24-20.66-1-28.09-4.31-6.09-11.33-7.79-13.61-8.34-11.91-2.88-22.17,3.56-28.43,7.49-6.08,3.82-16.92,10.62-20.76,24.17-.64,2.24-3.85,13.56,1.7,24,2.06,3.88,4.84,9.1,10.55,11.92,2.81,1.38,5.7,1.87,6.47,4.25.69,2.16-.78,4.56-2,6.64a19.44,19.44,0,0,1-4.77,5.28c-1.14.86-4.61,3.29-13.11,4.59-3.8.58-7.3.56-14.29.51-10.75-.07-5.7-.77-15.15-1-1.84-.05-5.39-.11-8.51-2.38-.43-.31-2.56-1.86-2.22-2.9s3.38-.4,6.81-1.19c3.84-.88,8.66-3.78,10.39-8.51,1.52-4.17,0-8.06-1.2-11.23-1-2.49-1.92-5-4.59-6.64-.49-.3-4-2.36-7.15-1-2.62,1.11-2.33,3.43-6,8a21.54,21.54,0,0,1-5.45,5.28c-3.83,2.39-7.77,2.41-11.4,2.38-5.14,0-8.84-1.21-14.13-2.9a80.41,80.41,0,0,1-11.4-4.59c-6.92-3.43-10.38-5.15-13.11-8.34a23.39,23.39,0,0,1-4.93-19.58c3-14,18.55-18.24,19.74-18.55,11.9-3,21.66,3,25.19,5.62,9.19,6.77,11.56,16.27,12.43,19.74,1.15,4.6,2.61,10.48-.51,15.32-2.1,3.26-5.54,4.9-9.19,6.64a37.88,37.88,0,0,1-9.71,3.06c-5.12.92-18.25,3.27-24.85-3.06a18.82,18.82,0,0,0-7.15-4.6c-2.26-.76-3.11-.49-3.57-.17-1.62,1.12-1,4.51-.68,6.13a16.75,16.75,0,0,0,3.23,7.15,21.71,21.71,0,0,0,6.81,5.45c11.2,6.64,10.74,9.7,16.51,11.06,4,1,7.17.13,12.77-1.36,8.13-2.16,12.17-5.24,20.59-10,16.35-9.33,25.36-12,30-13.11,4.91-1.22,10.46-2.12,16.34,0,.76.28,8.83,3.27,8.85,7.66,0,2.62-2.84,4.64-4.59,5.79-13.12,8.59-26.39,11.36-39.49,18.21-7.17,3.75-6.33,4.57-19.58,12.09-7.6,4.31-11.41,6.47-16.51,8.51a91.09,91.09,0,0,1-26.72,6.12,104.56,104.56,0,0,1-17.19-.34c-18.81-1.36-36.41-2.64-39.49-11.06-1.22-3.34.65-5.6-1.7-10.89a15.42,15.42,0,0,0-6.47-7.49,14.69,14.69,0,0,0-5.79-1.54c-7.3-.86-13.08-3-19.06-5.27-4.56-1.71-9.61-4.06-12.6-5.45-1.9-.88-2.85-1.32-3.23-1.53-7.88-4.24-8.31-9.38-16.85-17-2.88-2.58-4-3-5.45-5.28a19.68,19.68,0,0,1-2.89-10.21,81.13,81.13,0,0,1,3.23-26.21c3.07-9.83,4.6-14.74,9.53-18.9,5.38-4.54,11.38-5.38,15.49-6,5-.69,17.56-2.46,24.17,5.28,3.75,4.39,3.94,9.93,4.09,14.3.22,6.78-1.74,11.86-4.26,18.38a97.55,97.55,0,0,1-7.15,14.64,56.7,56.7,0,0,0-4.76,8.34c-1.87,4.25-3.31,7.53-2.39,10.55.48,1.58,1.9,4.08,10.56,7.32,12.26,4.6,16.19,2.12,26.55,6.3,5.47,2.21,5,3.14,12.25,6.3a105.93,105.93,0,0,0,17,5.45c21.78,4.76,50.1-6.36,50.21-6s-10.66,5.9-22,2.55c-2.27-.67-4.57-2-9.19-4.59-2.3-1.3-6.6-3.83-17.19-11.24-8-5.58-9.59-7-13.45-8a29,29,0,0,0-10-.68c-4,.24-6.93.46-8.17,2.55a5.56,5.56,0,0,0-.17,4.43,7.4,7.4,0,0,0,3.74,3.74,80.76,80.76,0,0,0,11.58,5.11c5.94,2.11,10.45,4,13.1,5.11,1.85.77,4.53,1.89,7,3.06,5.84,2.78,10.33,5.81,20.26,13.28,6.28,4.72,5.63,4.37,12.42,9.53,14.55,11,18.73,13.54,24.34,15.32a36.66,36.66,0,0,0,11.58,1.87,42.84,42.84,0,0,0,11.06-1.87c3.39-.91,3.6-1.26,10-3.41,5.92-2,8.91-2.95,10.9-2.89,2.28.07,4.22.69,11.06,4.77,9.32,5.55,8.76,6.2,15.49,10a151.8,151.8,0,0,1,13.11,7.83,27.32,27.32,0,0,1,5.1,4.42,26,26,0,0,1,4.09,6.13,33.66,33.66,0,0,1,1.53,4.09c.11,0-4-7.5-2-14,1-3.33,3-4.28,9.7-9.7,12.8-10.37,11.79-12,20.09-17.7,3.64-2.53,6.49-6.2,10.38-8.34a5.59,5.59,0,0,0,2.89-2.9c.5-1.48-.17-2.63-.85-5.45-.09-.37-.34-2-.85-5.27-.76-4.9-.24-5.15-.85-10.38-.45-3.79-.76-4.33-.34-5.62.88-2.69,3.54-4.24,5.62-5.11,6.51,2.66,16.93,7.72,25.87,16.34,3.94,3.81,6.36,6.15,8.51,10.21,1.66,3.17,2.36,5.85,5.79,12.43a17.22,17.22,0,0,0,4.76,6.13,16.32,16.32,0,0,0,4.43,2.38c4.9,1.92,8.35,3.28,13.44,3.92a38.66,38.66,0,0,0,15.66-.86c5.87-1.67,8.11-4.16,19.75-12.93,0,0,5.78-4.35,14-10.21,14.07-10,21.1-15,25.28-15.58,9.81-1.4,15.52,3.64,24-.25a18.22,18.22,0,0,1,7.15-2.05c3.74-.21,6.42,1,9.7,2.3,16.4,6.73,17.2,5.31,24.25,9.7,3.73,2.32,4.18,3.13,6.39,3.58,5.9,1.19,12.49-2.6,16.08-7.41,5.63-7.53,3.29-16.75,2.81-18.63-1-3.85-3.54-7.5-8.68-14.81-3.41-4.85-5.11-7.28-7.66-10-5-5.25-8.11-6.59-10.47-11.75a20.44,20.44,0,0,1-1.79-6.63c-.31-3.88.64-7.25,2.3-11,3-6.64,7.77-17.43,19.92-24.51,5.2-3,10.23-6,16.85-5.36,15.24,1.39,22.38,20,22.72,20.93,1.12,3,4.73,12.87,0,22.73-3.85,8-11.13,11.68-13.79,13-4.24,2.13-7.9,2.77-12.51,3.57-7.88,1.38-12.21.54-13.53.26-3.78-.82-5.67-1.23-6.89-2.81-2.14-2.77-.57-6.28-2-14.3a6.65,6.65,0,0,0-2-4.09,5.91,5.91,0,0,0-3.57-1.27,7.59,7.59,0,0,0-5.19,2.13c-3.05,2.61-3.64,6.41-3.92,8.34s0,2.4,1.19,11.23c1.31,9.3,1,8.34,1.37,9.87.66,2.76,1.3,4.29,1,6.81a8.46,8.46,0,0,1-2.22,5.45c-2,1.92-4.86,1.81-7.66,1.7a19.78,19.78,0,0,1-8.85-2.21c-4.76-2.53-4.86-5.23-10-8.34a26.33,26.33,0,0,0-6.47-2.73c-11.73-3.58-26,1.45-30.46,3.07-10.28,3.73-12.33,6.77-22.81,9-.92.19-2.22.45-9.71,1.36-22.4,2.72-33.61,4.07-40,3.74a51.14,51.14,0,0,0-11.74.52c-5.27.86-10.47,1.72-12.6,5.61-1.54,2.82-.79,6,0,9.36.53,2.22,1.39,5.7,4.43,8.34a14.07,14.07,0,0,0,4.08,2.39c2.19.91,4.76,2,7.49,1.19,1.61-.47,2.63-1.41,4.6-3.23a28.34,28.34,0,0,0,3.23-3.58c2.76-3.28,9.16-1.38,18.22-1,.89,0,9.38-.83,26.38-2.55,0,0,1.45-.15,5.62-1,3.45-.72,4-1,4.42-1.53,1.62-2-.09-5.83-.68-7.15a18.58,18.58,0,0,0-5.79-7.14c-8.62-6.53-14.42-4-20.42-9.2-3.56-3.06-4.8-6.77-6.3-11.23-4.15-12.38-.6-23.66,1.36-29.62,3-9.15,6.91-21,18.39-26.21a30,30,0,0,1,18.72-1.7c6.8,1.56,11,5.1,15.66,9,4.21,3.55,9.4,7.92,12.08,15.49,1.09,3.07,2.72,7.67,1,12.76-1.81,5.45-6.44,8.55-8.17,9.71-2.92,1.95-3.78,1.55-10.21,5.27-2.76,1.6-4.79,2.95-5.79,5.45a8.53,8.53,0,0,0-.51,4.08c.17,1.09.94,4.39,11.75,10,7.38,3.86,11.07,5.79,15.15,6.47,2.84.47,6.29.64,7,2.55.44,1.24-.5,2.64-1,3.4A104.61,104.61,0,0,1,1353,515.15a63.7,63.7,0,0,0-7.83,10.38c-.9,1.43-1.86,3.07-5.79,10.9-6.1,12.19-5.43,11.56-6.63,13.27a35.13,35.13,0,0,1-14.13,11.92c-3.86,1.71-7.28,2.07-14,2.72a132.6,132.6,0,0,1-29.11-.34,115.49,115.49,0,0,1-17.53-3.4c-12.86-3.6-16.88-7.26-25.7-7.32-10.53-.08-13.35,1.89-14.3,3.06-1.55,1.93-1.67,4.16-1.78,7.06-.52,13.08-.78,19.61-.77,19.66,1.84,21.14-1.2,21,1,43.66.77,7.84,1.6,12.64.51,20.17-1.77,12.22-6.47,17-7.66,18.13-3.09,3-6.25,4.21-10,5.62-7.29,2.78-13.09,3.11-20.93,3.57-26.46,1.58-26,1.8-29.87,1.53-11.19-.77-16.91-1.16-23-5.1-8.85-5.74-12.26-15-13.53-19.41q-.52-29-1-58a235.52,235.52,0,0,0-2.55,73.53,16,16,0,0,0,4.6,8.42c4.18,3.84,9.77,4,12.25,4.09,42.86.9,96.68-2.4,114.38-.51a55.23,55.23,0,0,0,17.88-.77c3.85-.81,8.45-.76,12-4.08a14.25,14.25,0,0,0,3.06-4.34c3.51-7.32,2.63-15.4,1.79-24-1.83-18.82-1-15.13-1.79-20.17-2.38-15.14-5.34-19.14-7.66-33.19-1.3-7.87-.48-7.23-1.79-19.92-3.13-30.34-7.78-34.83-4.08-42.64,4.66-9.83,16.83-12.84,32-16.59,18.81-4.65,17.57,1.23,51.45-1.54,11.9-1,22.17-2.52,31.15,3.58,1.76,1.2,1.9,1.62,9.57,7.79,8.22,6.6,12.33,9.9,15.45,11.87,9.51,6,18.89,7.21,24.25,7.91,9.94,1.3,25.33,3.31,35-5.61,1.28-1.18,3.86-5.9,9-15.32,5.27-9.61,7-14.06,8.17-18.9.63-2.7.76-5.77,1-11.91a10.93,10.93,0,0,0-1-6.13c-.72-1.31-1.23-1.38-1.7-2.55a7,7,0,0,1,1-6.64c1.7-2.05,4.35-2.12,8-2.21,4-.1,7.77-.2,11.58,2.21,4.81,3,6.4,8,7,9.87,1.19,3.91.66,6.52-.34,14.3-.79,6.11-1.3,12.26-2,18.38-2.29,18.77-1.36,17-2.21,19.58-4.86,14.77-18.45,21.74-19.57,22.3-5.89,2.9-10.72,3.3-18.22,3.91-12.7,1-23.88-.73-37.1-2.89-12-2-16.79-3.46-23.32-.85-2.85,1.13-6.41,3.2-11.41,9-13.34,15.51-16.69,34.13-18.89,47.15a126.37,126.37,0,0,0-1.7,24.85c.15,12.64,1.77,17,2.55,18.89,3,7.3,7.75,11.61,11.06,14.64,4.81,4.39,8.11,7.41,12.43,7s7.31-4,9.19-6.3,3.25-4.65,4.94-9.7a73.92,73.92,0,0,0,3.57-17.88c.36-4.72.34-8.46-.51-22.63-.77-13-1-15-1.36-20.94-.34-6.6-.61-16-.17-27.57,1.08,6.2,6.83,38.53,17.19,62.12,1.77,4,5.21,9.61,12.09,20.77,5.09,8.27,8.21,12.76,13.1,13.45,2.65.37,3.7-.67,8.85-.17a47.06,47.06,0,0,1,8.86,1.87c3.79,1.06,6,1.93,8.68,2.89a107.55,107.55,0,0,0,14.46,4.26c8,1.59,13.08,2.61,17.54-.17,3.89-2.44,5.32-6.56,6.46-9.88.58-1.68,2.23-6.94.34-19.91-.77-5.36-1.49-7.14-4.59-19.23-3.48-13.59-5.17-21.11-5.62-23.15-1.94-8.78-2.93-13.28-3.57-18.9a113.61,113.61,0,0,1-.34-19.74c.38-5.71,1-8.49,2.21-11.24a40.58,40.58,0,0,1,4.77-7.83c2.79-3.73,3.16-3.12,4.25-5.1,1.64-3,.88-4.45,1.53-13.11.47-6.13.93-6.58.34-8.68-.27-1-.73-2.15-4.25-7.66-1.47-2.3-2.72-4.17-3.58-5.45-1.58,6.57-4,16.26-7.32,27.92-4.46,15.74-6.33,20.27-8.51,28.26a184.62,184.62,0,0,0-6.29,48.85c-.11,18.92-.27,46.32,13.78,53.44,2.22,1.13,4.55,1.55,9.19,2.39a74.75,74.75,0,0,0,26.22,0c27.48-4.6,55.72-1.18,83.57-2l38.13-1.19c22.56-.52,43,.13,160.77,9.79,19.74,1.62,47.89,4,83.48-3.83,13.49-3,20.29-4.18,20.26-5.36-.37-15.09-982.33-2.86-1766.25,4.38C102.5,675,.64,727.25,0,676,0,675.73,127.33,676.4,252.17,674Z"/></svg>