<svg id="레이어_1" data-name="레이어 1" xmlns="http://www.w3.org/2000/svg" viewBox="0 0 400 600"><defs><style>.cls-1{fill:none;stroke:#fff;stroke-miterlimit:10;}</style></defs><path class="cls-1" d="M0,421.94c29.08,19.5,54.3,26.83,72.23,29.87,24.44,4.14,39.82,1.06,71.24,7.66a253,253,0,0,1,48.25,15.32c0,.84-.17,7.66,5,11.74a14.53,14.53,0,0,0,16.35.51c3.18-2.32,4.19-5.66,5.1-8.85,1.44-5,1.09-8.59.85-15.15-.16-4.47.42-9.55-.17-16.51a13.46,13.46,0,0,0-1.53-6c-1.79-3.17-4.75-4.74-7.49-5.95a65.07,65.07,0,0,0-18.55-4.94c-8.76-1-14.16-.28-21.45.68-4.67.62-7.72,1.34-9.7,3.92-1.55,2-2.48,5.2-1.36,7.66,1.67,3.68,7.33,4.35,11.23,4.76,27.76,2.93,41.19,2.56,41.19,2.56,16.44-.47,21.09-1.11,25.53-4.77a28.08,28.08,0,0,0,7.49-10.38,26.13,26.13,0,0,0,1.71-11.92,24.63,24.63,0,0,0-5.62-14c-1.44-1.65-4.37-4.51-13.62-7.66-7.14-2.43-14.07-3.68-23.49-4.42-8.54-.67-14.93-.56-27.74-.17-11.83.36-16.8,1-20.94,4.76-1.35,1.24-4.25,3.53-4.76,7.32-.56,4.16,2,7.44,2.72,8.34,3.53,4.51,9,5.69,12.6,6.3,12.35,2.14,22.69,2.2,42.21,1.53,7.28-.24,10.37-.38,14.81-1.36,5.39-1.18,12.28-2.77,18.89-8.17,2.56-2.08,9-7.48,10.89-16.34.56-2.58,1.68-7.75-1.19-12.42A13.92,13.92,0,0,0,247,382a59.81,59.81,0,0,0-16.34-9,203.89,203.89,0,0,0-31.15-7.15s-23.67-3.7-39.32-.85a18.7,18.7,0,0,0-7.66,3.06,13.83,13.83,0,0,0-5.11,5.62c-.52,1.16-1.63,3.61-.85,6.13.66,2.1,2.42,3.59,5.11,4.93,11.17,5.61,27.06,6.3,27.06,6.3,6.63,0,14.1.78,25.19.85a139,139,0,0,0,27.58-2.21c4.42-.83,7.6-1.68,10.89-3.91,5.55-3.75,7.95-9,9.36-12.26,2.89-6.57,3.18-13.29,3.75-26.72.1-2.45.15-4.46.17-5.79l8-10c17.75-22.22,19.87-24.46,23.15-29.28,7.63-11.23,11-21,14.81-32A174.33,174.33,0,0,0,311.21,219c.34-12.46.8-29.46-6.38-49-10.78-29.38-31.89-45.78-37.53-50-36.21-27.37-93.87-34.38-136.09-6.38C100.26,134,89.39,165.57,86,175.81a132.33,132.33,0,0,0-3.32,66.64c8.8,42.72,39.44,71.76,43.92,75.06a22.33,22.33,0,0,1,5.1,5.11,24.5,24.5,0,0,1,3.83,8.93c1.77,7.14,1.15,10,2.3,19.41.81,6.62,1.21,9.92,2.55,12.25.39.68,5.42,9.07,15.07,9.45a17.75,17.75,0,0,0,12.25-4.34c5.45-5,5.71-12.66,5.88-17.11,1.59-43.86,2.23-35.59,1.78-43.66-1-17.75-2.41-28-4.85-45.44-1.29-9.25-3.17-21.38-10.72-32.68-2.89-4.33-6.5-8.35-12-10.22-1.92-.65-7.23-2.45-12.51.26-6.77,3.47-7.8,11.4-7.92,12.51a16.7,16.7,0,0,0,2.56,11c.95,1.37,4.73,6.22,21.7,7.4,6.58.46,17.15-1.3,38-4.85,7.86-1.33,16-2.82,20.68-8.94a27.87,27.87,0,0,0,3.07-5.36c1.47-3.38,3.66-8.41,2-13.78-1.73-5.76-6.82-8.59-7.92-9.2a18.56,18.56,0,0,0-19.66,1c-1,.75-6.73,4.94-6.89,12-.15,6.74,6.08,11.39,11,15.06,14.35,10.74,28.93,11.27,56.17,12.25a18.78,18.78,0,0,0,10-2c6.52-3.55,8.47-10.44,8.68-11.23.33-1.24,2.13-8-1.79-13.79-4.36-6.39-13.33-7.88-19.4-6.13-9,2.61-13.34,12.85-16.34,21.45-11.94,34.14-11.87,67.27-11.75,79.66.28,28.56.2,46,2.81,68.68,0,0,4.19,36.42,5.36,61.72.07,1.54.07,2.9.26,5.88s.19,5.83.32,8.74a7.59,7.59,0,0,1-.58,4.15,6.58,6.58,0,0,1-2.49,2.49c-2.72,1.65-10.94,4.64-21,1.28-5.46-1.83-6.73-3.95-7.15-4.79-.17-.34-1.56-3.25-.19-5.62.93-1.62,2.65-2.11,5-2.74,3.9-1.06,7.37-.71,11.43-.26,1.49.17,2.57.34,4,.58,4,.65,7.31,1.38,9.55,1.93"/></svg>