<?xml version="1.0" encoding="utf-8"?>
<!-- Generator: Adobe Illustrator 25.1.0, SVG Export Plug-In . SVG Version: 6.00 Build 0)  -->
<svg version="1.1" id="레이어_1" xmlns="http://www.w3.org/2000/svg" xmlns:xlink="http://www.w3.org/1999/xlink" x="0px"
	 y="0px" viewBox="0 0 1920 505" style="enable-background:new 0 0 1920 505;" xml:space="preserve">
<style type="text/css">
	.st0{fill:#FFFFFF;}
</style>
<g>
	<path class="st0" d="M111.9,72.7c-0.1-4.8-1.4-9.6-4.2-13.6c-2.8-3.9-7.4-7.6-14.7-7.6c-9.9,0-13.7,4.8-15.1,9.6
		c-1.5,5.4,0.2,11.3,4,15.4c3.9,4.3,3.8,6.3,18.2,14.4c29.7,16.8,55.3,41.3,55.3,41.3c14.7,16.6,19.5,40.3,17.9,62.7
		s-4.8,24.6-20.5,41.2s-46,18.5-60.8,18.2s-20.1-1.6-38-7.4c-17.9-5.8-32.9-29.1-36.8-36.8c-3.8-7.7-4.8-50.8-4.8-50.8h57.1
		l0.1,16.9c0,10.9,9,25.5,20,25.7c0.2,0,0.3,0,0.5,0c7.2,0,18.5-0.1,18.2-19.6S60.2,140,52.8,134.2c-7.4-5.8-34.5-16.3-35.8-52.8
		C15.8,45,31.1,23.9,45.2,13.7s59.9-22.4,95-1c31.3,19.2,29.2,74.8,29.2,74.8h-57.4L111.9,72.7z"/>
	<polygon class="st0" points="183,3.1 183,249.3 296.2,249.3 309.6,189.8 248.8,189.8 248.8,3.7 	"/>
	<path class="st0" d="M429.2,3.7h-69.1l-55,244.9l63.9,0.6l3.2-24.3h39l4.5,24.3h68.4L429.2,3.7z M381.2,171.3l10.9-64.6l11.5,64.6
		H381.2z"/>
	<path class="st0" d="M487.4,3.7h79.3l25.6,108.1L617.8,3.1h78.7v245.6h-58.2V142.5l-25.6,104.9h-40.3L546.9,140v109.4H488
		C488,249.3,485.8,2.1,487.4,3.7z"/>
	<path class="st0" d="M157.5,278c-0.4-0.8-0.9-1.6-1.4-2.5c0,0-4.4-7.4-16.8-13.4c-8.3-4-17.5-5.8-26.8-5.8L18,256.2V500H103
		c0,0,48,0.6,60.1-38.4c0,0,6.4-14.1,6.4-37.7v-97.1C169.5,309.8,165.6,292.9,157.5,278z M98.8,444.3l-17.1,0.1L82.3,312
		c4.3,0,11.4,0,14.2,0c8.4,0,7.5,7.2,7.5,7.2V435C104,439.6,104.4,444.1,98.8,444.3z"/>
	<path class="st0" d="M183.3,256h64.9v175.8c0,2.6,0.6,5.2,2,7.4c1.6,2.6,4.4,5.1,9.2,5.1c9.6,0,10.7-9.8,10.7-11.3
		c0-0.3,0-177.7,0-177.7h64.7v179.4c0,0-5.4,69.4-74.8,69.4s-75.8-48.9-75.8-67.1S183.3,256,183.3,256z"/>
	<polygon class="st0" points="356.1,254.7 409.1,254.7 450.1,354.9 450.1,255.2 509.2,255.2 509.2,499 456.1,499 414.5,399.3 
		414.5,499.1 356,499.1 	"/>
	<polygon class="st0" points="530.7,254.6 530.7,498.7 596.7,498.7 596.7,426.9 625.2,498.9 698.3,498.9 640.8,370.8 690.8,255.6 
		623.8,255.6 596.7,324.4 596.7,255 	"/>
	<g>
		<path class="st0" d="M981.8,494c-43.7,0-75.3-10.9-94.6-32.7c-19.3-21.8-29-56.4-29-104v-46.8H953v59.9c0,11.1,1.7,19.7,5,26
			c3.4,6.3,9.2,9.4,17.6,9.4c8.7,0,14.7-2.5,18.1-7.6c3.4-5.1,5-13.4,5-25c0-14.7-1.5-27-4.4-36.9c-2.9-9.9-7.9-19.3-15.1-28.3
			c-7.2-9-17.1-19.5-29.8-31.4l-43-40.8c-32.1-30.3-48.2-65-48.2-104c0-40.8,9.5-71.9,28.4-93.4C905.7,17,933.1,6.3,969,6.3
			c43.9,0,75.1,11.7,93.5,35.1c18.4,23.4,27.6,59,27.6,106.7h-97.4v-32.9c0-6.5-1.9-11.6-5.6-15.2c-3.7-3.6-8.8-5.4-15.1-5.4
			c-7.6,0-13.2,2.1-16.7,6.4c-3.5,4.3-5.3,9.8-5.3,16.5c0,6.7,1.8,14,5.4,21.8c3.6,7.8,10.8,16.8,21.5,26.9l55.2,53.1
			c11.1,10.5,21.2,21.6,30.5,33.3c9.3,11.7,16.7,25.3,22.3,40.8c5.6,15.5,8.4,34.4,8.4,56.7c0,45-8.3,80.2-24.9,105.7
			C1051.9,481.3,1023,494,981.8,494z"/>
		<path class="st0" d="M1125.2,489.6v-479h95.3v171.2h45.2V10.6h95.3v479h-95.3V272.5h-45.2v217.2H1125.2z"/>
		<path class="st0" d="M1517.7,494c-38.3,0-67.5-11.6-87.8-34.7c-20.2-23.1-30.3-56.6-30.3-100.3V131.5c0-41,10-72.1,30.1-93.4
			c20-21.2,49.4-31.8,88-31.8s68,10.6,88,31.8c20,21.2,30.1,52.3,30.1,93.4V359c0,43.7-10.1,77.2-30.3,100.3
			C1585.2,482.4,1556,494,1517.7,494z M1518.5,405.8c14.5,0,21.8-14.1,21.8-42.2V129.8c0-23.6-7.1-35.4-21.2-35.4
			c-16,0-24,12.1-24,36.2v233.5c0,14.9,1.8,25.5,5.4,32C1504.2,402.6,1510.2,405.8,1518.5,405.8z"/>
		<path class="st0" d="M1674.5,489.6v-479H1801c26.5,0,47.5,5.9,63,17.7c15.5,11.8,26.6,28.6,33.3,50.4
			c6.7,21.8,10.1,47.7,10.1,77.8c0,29-2.8,54.3-8.4,75.8c-5.6,21.5-15.7,38.2-30.1,49.9c-14.4,11.8-34.9,17.7-61.4,17.7h-38.9v189.7
			H1674.5z M1768.6,213.9h5.4c17.8,0,28.7-5,32.7-15c4-10,6-24.7,6-44.1c0-18.1-2-32.2-5.9-42c-3.9-9.9-13.1-14.8-27.6-14.8h-10.6
			V213.9z"/>
	</g>
	<circle class="st0" cx="769.1" cy="472.6" r="27.3"/>
</g>
</svg>
